<svg width="13" height="13" viewBox="0 0 13 13" fill="none" xmlns="http://www.w3.org/2000/svg">
<path d="M5.42563 5.85217C5.46333 5.66667 5.53187 5.50114 5.63125 5.35559C5.73064 5.21005 5.86772 5.09304 6.03564 5.00457C6.19671 4.9218 6.3989 4.87614 6.64907 4.87329C6.81357 4.87614 6.96436 4.89897 7.09459 4.94749C7.23509 4.99886 7.35161 5.06735 7.45099 5.15297C7.55038 5.23858 7.62577 5.34132 7.6806 5.45548C7.73544 5.56963 7.76628 5.69235 7.77313 5.82078H9C8.98972 5.55251 8.92461 5.30708 8.81151 5.08447C8.69842 4.86187 8.53393 4.67066 8.32831 4.50799C8.12269 4.34532 7.87594 4.2226 7.58807 4.13413C7.30021 4.04566 6.98149 4 6.63194 4C6.18643 4 5.79918 4.06279 5.47019 4.19121C5.14119 4.31963 4.86703 4.49372 4.6477 4.71632C4.42838 4.93893 4.26388 5.19578 4.15764 5.48973C4.05141 5.78368 4 6.09475 4 6.42295V6.57991C4 6.91096 4.05483 7.22203 4.16107 7.51598C4.26731 7.80993 4.4318 8.06678 4.65113 8.28653C4.87046 8.50628 5.14462 8.68037 5.47704 8.80879C5.80946 8.93721 6.19671 9 6.64222 9C6.96436 9 7.26594 8.95719 7.54695 8.86872C7.82796 8.78025 8.07471 8.66039 8.28718 8.50628C8.49966 8.35217 8.67101 8.17523 8.79438 7.96975C8.91775 7.76427 8.98972 7.54737 9 7.31336H7.77313C7.76628 7.43322 7.73201 7.54167 7.67032 7.64441C7.60864 7.74715 7.52639 7.83276 7.42358 7.90411C7.32077 7.97546 7.20082 8.03253 7.06374 8.07249C6.93352 8.10959 6.79644 8.12957 6.64907 8.12957C6.40233 8.12386 6.20014 8.08105 6.03564 7.99543C5.86429 7.90411 5.72721 7.7871 5.62783 7.64155C5.52844 7.496 5.4599 7.33048 5.42221 7.14212C5.38451 6.95377 5.3708 6.77112 5.3708 6.57991V6.42295C5.3708 6.22888 5.38794 6.03767 5.42563 5.85217Z" fill="#50473C"/>
<path fill-rule="evenodd" clip-rule="evenodd" d="M0 6.5C0 2.90875 2.90875 0 6.5 0C10.0912 0 13 2.90875 13 6.5C13 10.0912 10.0912 13 6.5 13C2.90875 13 0 10.0912 0 6.5ZM1.3 6.5C1.3 9.3665 3.6335 11.7 6.5 11.7C9.3665 11.7 11.7 9.3665 11.7 6.5C11.7 3.6335 9.3665 1.3 6.5 1.3C3.6335 1.3 1.3 3.6335 1.3 6.5Z" fill="#50473C"/>
</svg>
