<svg width="18" height="18" viewBox="0 0 18 18" fill="none" xmlns="http://www.w3.org/2000/svg">
<path fill-rule="evenodd" clip-rule="evenodd" d="M0 9C0 4.0372 4.0372 0 9 0C13.9628 0 18 4.0372 18 9C18 13.9628 13.9628 18 9 18C4.0372 18 0 13.9628 0 9ZM12.3143 12.3143C12.6075 12.021 12.6075 11.547 12.3143 11.2537L10.0605 9L12.3143 6.74629C12.6075 6.45296 12.6075 5.97903 12.3143 5.6857C12.021 5.3925 11.547 5.3925 11.2537 5.6857L9 7.93954L6.74629 5.6857C6.45296 5.3925 5.97903 5.3925 5.6857 5.6857C5.3925 5.97903 5.3925 6.45296 5.6857 6.74629L7.93954 9L5.6857 11.2537C5.3925 11.547 5.3925 12.021 5.6857 12.3143C5.83195 12.4606 6.02394 12.534 6.21606 12.534C6.40805 12.534 6.60004 12.4606 6.74629 12.3143L9 10.0605L11.2537 12.3143C11.4 12.4606 11.5919 12.534 11.7839 12.534C11.9761 12.534 12.168 12.4606 12.3143 12.3143Z" fill="white"/>
</svg>
