<svg width="34" height="32" viewBox="0 0 34 32" fill="none" xmlns="http://www.w3.org/2000/svg">
<path fill-rule="evenodd" clip-rule="evenodd" d="M5.3125 0H28.6875C31.6169 0 34 2.44682 34 5.45455V17.0455C34 17.6093 33.6617 18.1151 33.1494 18.318C32.6369 18.5207 32.0555 18.3787 31.6872 17.9603L25.1729 10.5679L15.496 23.2053L18.5497 27.2727H23.4414C24.175 27.2727 24.7695 27.8832 24.7695 28.6364C24.7695 29.3896 24.175 30 23.4414 30H5.3125C2.3831 30 0 27.5532 0 24.5455V5.45455C0 2.44682 2.3831 0 5.3125 0ZM26.0865 7.53968L31.3438 13.5059V5.45455C31.3438 3.95082 30.1521 2.72727 28.6875 2.72727H5.3125C3.84793 2.72727 2.65625 3.95082 2.65625 5.45455V24.5455C2.65625 26.0492 3.84793 27.2727 5.3125 27.2727H15.1959L9.29791 19.4169L7.42686 21.9146C6.9794 22.5115 6.14569 22.6233 5.56412 22.1639C4.9828 21.7047 4.87411 20.8487 5.32132 20.2516L8.24423 16.3503C8.49533 16.015 8.88417 15.8184 9.2961 15.8182H9.29688C9.7088 15.8182 10.0974 16.0145 10.3487 16.3493L13.8231 20.9771L24.0575 7.61186C24.2995 7.29599 24.6647 7.10582 25.0556 7.09171C25.4463 7.07706 25.824 7.24165 26.0865 7.53968ZM6 9C6 6.79427 7.79427 5 10 5C12.2057 5 14 6.79427 14 9C14 11.2057 12.2057 13 10 13C7.79427 13 6 11.2057 6 9ZM8.66667 9C8.66667 9.73516 9.26484 10.3333 10 10.3333C10.7352 10.3333 11.3333 9.73516 11.3333 9C11.3333 8.26484 10.7352 7.66667 10 7.66667C9.26484 7.66667 8.66667 8.26484 8.66667 9ZM30.9768 20.9422L30.989 20.9537L33.6104 23.4525C34.1419 23.9592 34.1279 24.7673 33.5787 25.2577C33.3101 25.4976 32.9631 25.617 32.6164 25.617C32.2548 25.617 31.8935 25.4871 31.6222 25.2283L29.9107 23.5972V30.7234C29.9107 31.4285 29.2913 32 28.5271 32C27.7628 32 27.1434 31.4285 27.1434 30.7234V23.5583L25.3552 25.1854C24.8112 25.6806 23.9351 25.6749 23.3987 25.173C22.862 24.671 22.8679 23.8627 23.4119 23.3678L26.0833 20.9368C26.7365 20.3326 27.6039 20 28.5271 20C29.4529 20 30.3229 20.3346 30.9768 20.9422Z" fill="#C7B299"/>
</svg>
