<svg width="18" height="17" viewBox="0 0 18 17" fill="none" xmlns="http://www.w3.org/2000/svg">
<path fill-rule="evenodd" clip-rule="evenodd" d="M14.9796 0.517698C15.6691 -0.172566 16.7918 -0.172566 17.4818 0.517698C17.816 0.851747 18 1.29637 18 1.76925C18 2.24213 17.816 2.68675 17.4818 3.02015L16.5022 4L14 1.49742L14.9796 0.517698ZM14.2499 8.00003C13.8352 8.00003 13.5 8.33607 13.5 8.74998V14.75C13.5 15.1632 13.1639 15.5 12.75 15.5H2.24999C1.83595 15.5 1.50004 15.1632 1.50004 14.75V4.24999C1.50004 3.83677 1.83595 3.50004 2.24999 3.50004H8.25002C8.66475 3.50004 8.99997 3.164 8.99997 2.75009C8.99997 2.33604 8.66475 2 8.25002 2H2.24999C1.0095 2 0 3.0095 0 4.24999V14.75C0 15.9905 1.0095 17 2.24999 17H12.75C13.9905 17 15 15.9905 15 14.75V8.74998C15 8.33525 14.6646 8.00003 14.2499 8.00003ZM7.62454 7.78886C7.57337 7.84004 7.53894 7.90515 7.52434 7.97535L7.00712 10.5626C6.98301 10.6825 7.02105 10.8061 7.10732 10.8932C7.17685 10.9628 7.27049 11 7.3664 11C7.38971 11 7.41396 10.9979 7.43807 10.9928L10.0243 10.4755C10.096 10.4608 10.1611 10.4265 10.2116 10.3752L16 4.5863L13.4138 2L7.62454 7.78886Z" fill="#50473C"/>
</svg>
