<svg width="18" height="18" viewBox="0 0 18 18" fill="none" xmlns="http://www.w3.org/2000/svg">
<path d="M12 8C12 7.4477 11.7088 7 11.3496 7H4.65041C4.29119 7 4 7.4477 4 8C4 8.5523 4.29119 9 4.65041 9H11.3496C11.7088 9 12 8.5523 12 8Z" fill="#C7B299"/>
<path d="M4.72678 10C4.32538 10 4 10.4477 4 11C4 11.5523 4.32538 12 4.72678 12H9.27322C9.67462 12 10 11.5523 10 11C10 10.4477 9.67462 10 9.27322 10H4.72678Z" fill="#C7B299"/>
<path d="M6.06652 16.5938H3.75938C2.99862 16.5938 2.37969 15.9629 2.37969 15.1875V2.8125C2.37969 2.03709 2.99862 1.40625 3.75938 1.40625H12.2406C13.0014 1.40625 13.6203 2.03709 13.6203 2.8125V7.13672C13.6203 7.52505 13.9292 7.83984 14.3102 7.83984C14.6912 7.83984 15 7.52505 15 7.13672V2.8125C15 1.26169 13.7621 0 12.2406 0H3.75938C2.23786 0 1 1.26169 1 2.8125V15.1875C1 16.7383 2.23786 18 3.75938 18H6.06652C6.44752 18 6.75637 17.6852 6.75637 17.2969C6.75637 16.9085 6.44752 16.5938 6.06652 16.5938Z" fill="#C7B299"/>
<path d="M11.3496 4H4.65041C4.29119 4 4 4.4477 4 5C4 5.5523 4.29119 6 4.65041 6H11.3496C11.7088 6 12 5.5523 12 5C12 4.4477 11.7088 4 11.3496 4Z" fill="#C7B299"/>
<path fill-rule="evenodd" clip-rule="evenodd" d="M10 14C10 11.79 11.79 10 14 10C16.21 10 18 11.79 18 14C18 16.21 16.21 18 14 18C11.79 18 10 16.21 10 14ZM15.5944 16.2222L16.2222 15.5944L14.6278 14L16.2222 12.4056L15.5944 11.7778L14 13.3722L12.4056 11.7778L11.7778 12.4056L13.3722 14L11.7778 15.5944L12.4056 16.2222L14 14.6278L15.5944 16.2222Z" fill="#C7B299"/>
</svg>
