<svg width="18" height="18" viewBox="0 0 18 18" fill="none" xmlns="http://www.w3.org/2000/svg">
<path fill-rule="evenodd" clip-rule="evenodd" d="M12.169 8.60688C13.066 8.89495 13.9175 9.31672 14.6996 9.8647C15.0231 10.0913 15.0968 10.5307 14.8644 10.846C14.632 11.1613 14.1813 11.2333 13.8579 11.0066C12.5561 10.0945 11.0266 9.59583 9.4233 9.55884C9.3594 9.56127 9.29518 9.5625 9.23071 9.5625C9.16667 9.5625 9.10296 9.56131 9.03954 9.55891C5.37793 9.64526 2.20721 12.2055 1.4588 15.7104C1.41203 15.9294 1.46771 16.1539 1.61154 16.3264C1.69483 16.4262 1.88057 16.5938 2.18843 16.5938H9.62735C10.0256 16.5938 10.3485 16.9085 10.3485 17.2969C10.3485 17.6852 10.0256 18 9.62735 18H2.18843C1.52756 18 0.909429 17.7134 0.492568 17.2136C0.0736516 16.7113 -0.0888596 16.059 0.0467888 15.4239C0.479587 13.3969 1.62611 11.5522 3.27509 10.2298C4.17437 9.50857 5.20183 8.96164 6.29682 8.61015C5.10169 7.73733 4.32689 6.34584 4.32689 4.78125C4.32689 2.14488 6.52672 0 9.23071 0C11.9347 0 14.1345 2.14488 14.1345 4.78125C14.1345 6.34391 13.3616 7.73388 12.169 8.60688ZM9.23071 8.15038C9.28931 8.15038 9.34783 8.15091 9.40628 8.15196C11.2337 8.06252 12.6922 6.58484 12.6922 4.78125C12.6922 2.92025 11.1394 1.40625 9.23071 1.40625C7.32201 1.40625 5.76919 2.92025 5.76919 4.78125C5.76919 6.58519 7.22826 8.06309 9.0562 8.152C9.11432 8.15094 9.17252 8.15038 9.23071 8.15038Z" fill="#C7B299"/>
<path d="M15.9983 15L17.7932 13.2051C18.0689 12.9294 18.0689 12.4824 17.7932 12.2068C17.5176 11.9311 17.0706 11.9311 16.795 12.2068L15 14.0017L13.205 12.2068C12.9293 11.9311 12.4824 11.9311 12.2068 12.2068C11.9311 12.4824 11.9311 12.9294 12.2068 13.205L14.0017 15L12.2068 16.795C11.9311 17.0706 11.9311 17.5176 12.2068 17.7932C12.3446 17.9311 12.5252 18 12.7059 18C12.8866 18 13.0672 17.9311 13.205 17.7933L15 15.9983L16.795 17.7933C16.9328 17.9311 17.1134 18 17.2941 18C17.4748 18 17.6554 17.9311 17.7932 17.7933C18.0689 17.5176 18.0689 17.0706 17.7932 16.795L15.9983 15Z" fill="#C7B299"/>
</svg>
