<svg width="17" height="17" viewBox="0 0 17 17" fill="none" xmlns="http://www.w3.org/2000/svg">
<path fill-rule="evenodd" clip-rule="evenodd" d="M11.3578 8.12872C12.1949 8.40079 12.9897 8.79913 13.7197 9.31666C14.0215 9.53069 14.0904 9.94563 13.8735 10.2435C13.6565 10.5412 13.2359 10.6092 12.9341 10.3952C11.719 9.53368 10.2915 9.06273 8.79508 9.0278C8.73544 9.03009 8.67551 9.03125 8.61533 9.03125C8.55556 9.03125 8.4961 9.03012 8.4369 9.02786C5.0194 9.10941 2.06006 11.5275 1.36155 14.8376C1.3179 15.0445 1.36986 15.2565 1.50411 15.4193C1.58185 15.5136 1.7552 15.6719 2.04253 15.6719H8.98552C9.35726 15.6719 9.6586 15.9692 9.6586 16.3359C9.6586 16.7027 9.35726 17 8.98552 17H2.04253C1.42573 17 0.8488 16.7293 0.45973 16.2573C0.0687415 15.7829 -0.0829357 15.1668 0.0436695 14.567C0.447615 12.6526 1.5177 10.9104 3.05675 9.66145C3.89608 8.98032 4.85504 8.46377 5.87703 8.13181C4.76158 7.30748 4.03843 5.9933 4.03843 4.51562C4.03843 2.02572 6.09161 0 8.61533 0C11.1391 0 13.1922 2.02572 13.1922 4.51562C13.1922 5.99147 12.4709 7.30422 11.3578 8.12872ZM8.61533 7.69758C8.67002 7.69758 8.72464 7.69808 8.77919 7.69907C10.4848 7.61461 11.8461 6.21901 11.8461 4.51562C11.8461 2.75802 10.3968 1.32812 8.61533 1.32812C6.83387 1.32812 5.38458 2.75802 5.38458 4.51562C5.38458 6.21934 6.74637 7.61514 8.45245 7.69911C8.5067 7.69811 8.56102 7.69758 8.61533 7.69758Z" fill="#50473C"/>
<path d="M15.3319 14.5L16.8277 13.0042C17.0574 12.7745 17.0574 12.402 16.8277 12.1723C16.598 11.9426 16.2255 11.9426 15.9958 12.1723L14.5 13.6681L13.0042 12.1723C12.7744 11.9426 12.402 11.9426 12.1723 12.1723C11.9426 12.402 11.9426 12.7745 12.1723 13.0042L13.6681 14.5L12.1723 15.9958C11.9426 16.2255 11.9426 16.598 12.1723 16.8277C12.2872 16.9426 12.4377 17 12.5882 17C12.7388 17 12.8893 16.9426 13.0042 16.8277L14.5 15.3319L15.9958 16.8277C16.1107 16.9426 16.2612 17 16.4118 17C16.5623 17 16.7128 16.9426 16.8277 16.8277C17.0574 16.598 17.0574 16.2255 16.8277 15.9958L15.3319 14.5Z" fill="#50473C"/>
</svg>
