<svg width="45" height="45" viewBox="0 0 45 45" fill="none" xmlns="http://www.w3.org/2000/svg">
<path fill-rule="evenodd" clip-rule="evenodd" d="M45 29.1797C45 30.1505 44.213 30.9375 43.2422 30.9375C42.2713 30.9375 41.4844 30.1505 41.4844 29.1797V10.5469C41.4844 8.60836 39.9073 7.03125 37.9688 7.03125H35.6836V8.78906C35.6836 9.7599 34.8966 10.5469 33.9258 10.5469C32.9549 10.5469 32.168 9.7599 32.168 8.78906V7.03125H24.1699V8.78906C24.1699 9.7599 23.3829 10.5469 22.4121 10.5469C21.4413 10.5469 20.6543 9.7599 20.6543 8.78906V7.03125H12.7441V8.78906C12.7441 9.7599 11.9572 10.5469 10.9863 10.5469C10.0155 10.5469 9.22852 9.7599 9.22852 8.78906V7.03125H7.03125C5.09273 7.03125 3.51562 8.60836 3.51562 10.5469V37.9688C3.51562 39.9073 5.09273 41.4844 7.03125 41.4844H37.9688C39.9073 41.4844 41.4844 39.9073 41.4844 37.9688C41.4844 36.9979 42.2713 36.2109 43.2422 36.2109C44.213 36.2109 45 36.9979 45 37.9688C45 41.8458 41.8458 45 37.9688 45H7.03125C3.15422 45 0 41.8458 0 37.9688V10.5469C0 6.66984 3.15422 3.51562 7.03125 3.51562H9.22852V1.75781C9.22852 0.786973 10.0155 0 10.9863 0C11.9572 0 12.7441 0.786973 12.7441 1.75781V3.51562H20.6543V1.75781C20.6543 0.786973 21.4413 0 22.4121 0C23.3829 0 24.1699 0.786973 24.1699 1.75781V3.51562H32.168V1.75781C32.168 0.786973 32.9549 0 33.9258 0C34.8966 0 35.6836 0.786973 35.6836 1.75781V3.51562H37.9688C41.8458 3.51562 45 6.66984 45 10.5469V29.1797ZM12.7441 18.457C12.7441 19.4278 11.9571 20.2148 10.9863 20.2148C10.0155 20.2148 9.22852 19.4278 9.22852 18.457C9.22852 17.4862 10.0155 16.6992 10.9863 16.6992C11.9571 16.6992 12.7441 17.4862 12.7441 18.457ZM28.0371 18.457C28.0371 19.4278 27.2501 20.2148 26.2793 20.2148C25.3085 20.2148 24.5215 19.4278 24.5215 18.457C24.5215 17.4862 25.3085 16.6992 26.2793 16.6992C27.2501 16.6992 28.0371 17.4862 28.0371 18.457ZM33.9258 20.2148C34.8966 20.2148 35.6836 19.4278 35.6836 18.457C35.6836 17.4862 34.8966 16.6992 33.9258 16.6992C32.955 16.6992 32.168 17.4862 32.168 18.457C32.168 19.4278 32.955 20.2148 33.9258 20.2148ZM12.7441 26.1035C12.7441 27.0743 11.9571 27.8613 10.9863 27.8613C10.0155 27.8613 9.22852 27.0743 9.22852 26.1035C9.22852 25.1327 10.0155 24.3457 10.9863 24.3457C11.9571 24.3457 12.7441 25.1327 12.7441 26.1035ZM10.9863 35.5078C11.9571 35.5078 12.7441 34.7208 12.7441 33.75C12.7441 32.7792 11.9571 31.9922 10.9863 31.9922C10.0155 31.9922 9.22852 32.7792 9.22852 33.75C9.22852 34.7208 10.0155 35.5078 10.9863 35.5078ZM20.3906 18.457C20.3906 19.4278 19.6036 20.2148 18.6328 20.2148C17.662 20.2148 16.875 19.4278 16.875 18.457C16.875 17.4862 17.662 16.6992 18.6328 16.6992C19.6036 16.6992 20.3906 17.4862 20.3906 18.457ZM18.6328 27.8613C19.6036 27.8613 20.3906 27.0743 20.3906 26.1035C20.3906 25.1327 19.6036 24.3457 18.6328 24.3457C17.662 24.3457 16.875 25.1327 16.875 26.1035C16.875 27.0743 17.662 27.8613 18.6328 27.8613ZM20.3906 33.75C20.3906 34.7208 19.6036 35.5078 18.6328 35.5078C17.662 35.5078 16.875 34.7208 16.875 33.75C16.875 32.7792 17.662 31.9922 18.6328 31.9922C19.6036 31.9922 20.3906 32.7792 20.3906 33.75ZM26.2793 27.8613C27.2501 27.8613 28.0371 27.0743 28.0371 26.1035C28.0371 25.1327 27.2501 24.3457 26.2793 24.3457C25.3085 24.3457 24.5215 25.1327 24.5215 26.1035C24.5215 27.0743 25.3085 27.8613 26.2793 27.8613ZM35.6836 26.1035C35.6836 27.0743 34.8966 27.8613 33.9258 27.8613C32.955 27.8613 32.168 27.0743 32.168 26.1035C32.168 25.1327 32.955 24.3457 33.9258 24.3457C34.8966 24.3457 35.6836 25.1327 35.6836 26.1035ZM26.2793 35.5078C27.2501 35.5078 28.0371 34.7208 28.0371 33.75C28.0371 32.7792 27.2501 31.9922 26.2793 31.9922C25.3085 31.9922 24.5215 32.7792 24.5215 33.75C24.5215 34.7208 25.3085 35.5078 26.2793 35.5078Z" fill="#CCA575"/>
</svg>
