<svg width="30" height="20" viewBox="0 0 30 20" fill="none" xmlns="http://www.w3.org/2000/svg">
<path fill-rule="evenodd" clip-rule="evenodd" d="M2.93479 0H27.0652C28.6836 0 30 1.30395 30 2.90322V17.0968C30 18.6978 28.6818 20 27.0652 20H2.93479C1.31889 20 0 18.6985 0 17.0968V2.90322C0 1.30453 1.31584 0 2.93479 0ZM3.01389 1.93552L14.3082 13.1085C14.6907 13.4867 15.3093 13.4867 15.6918 13.1085L26.9861 1.93552H3.01389ZM28.0435 3.62667V17.0185L21.2748 10.3226L28.0435 3.62667ZM26.334 18.0645L19.8913 11.6911L17.0753 14.4769C15.9312 15.6089 14.0692 15.6089 12.9248 14.4769L10.1088 11.6911L3.66609 18.0645H26.334ZM1.95656 17.0185L1.9565 17.0185H1.95656V17.0185ZM1.95656 17.0185V3.62667L8.72525 10.3226L1.95656 17.0185Z" fill="#50473C"/>
</svg>
