<svg width="45" height="35" viewBox="0 0 45 35" fill="none" xmlns="http://www.w3.org/2000/svg">
<path fill-rule="evenodd" clip-rule="evenodd" d="M45 19.1699C45 20.1408 44.213 20.9277 43.2422 20.9277C42.2713 20.9277 41.4844 20.1408 41.4844 19.1699V8.02873L26.2129 17.5249C25.0678 18.2369 23.7839 18.5929 22.5 18.5929C21.2161 18.5929 19.9322 18.2369 18.7871 17.5249L3.51562 8.02873V27.959C3.51562 29.8975 5.09273 31.4746 7.03125 31.4746H37.9688C39.9073 31.4746 41.4844 29.8975 41.4844 27.959C41.4844 26.9881 42.2713 26.2012 43.2422 26.2012C44.213 26.2012 45 26.9881 45 27.959C45 31.836 41.8458 34.9902 37.9688 34.9902H7.03125C3.15422 34.9902 0 31.836 0 27.959V7.65625C0 3.77922 3.15422 0.625 7.03125 0.625H37.9688C41.8458 0.625 45 3.77922 45 7.65625V19.1699ZM20.6436 14.5393C21.7886 15.2514 23.2114 15.2513 24.3564 14.5393L40.0176 4.80095C39.4403 4.38558 38.7326 4.14062 37.9687 4.14062H7.03124C6.26738 4.14062 5.55968 4.38549 4.98242 4.80086L20.6436 14.5393Z" fill="#CCA575"/>
</svg>
