<svg width="45" height="45" viewBox="0 0 45 45" fill="none" xmlns="http://www.w3.org/2000/svg">
<path fill-rule="evenodd" clip-rule="evenodd" d="M42.0294 19.8678C40.4952 17.5118 38.3723 15.281 35.7198 13.2375C32.8102 10.9958 29.921 9.48216 28.2189 8.68324L30.5838 2.56209C30.6617 2.36047 30.7017 2.14602 30.7017 1.92981V1.75438C30.7017 1.17808 30.4186 0.638607 29.9445 0.311039C29.4704 -0.0165294 28.8657 -0.0903575 28.3266 0.113461C24.3751 1.60804 20.5345 1.6083 16.5859 0.113549C16.0469 -0.0903575 15.442 -0.0167052 14.9678 0.310863C14.4936 0.638432 14.2105 1.17808 14.2105 1.75438V1.92981C14.2105 2.14602 14.2505 2.36038 14.3284 2.56209L16.6945 8.68614C15 9.48577 12.1264 10.9993 9.23282 13.2401C6.59338 15.284 4.4811 17.515 2.95462 19.8713C0.994131 22.8976 0 26.1284 0 29.4738C0 34.0625 1.38964 37.9492 4.01871 40.7137C6.58433 43.4115 10.1587 44.8919 14.3551 44.9948C14.3692 44.9952 14.3833 44.9953 14.3975 44.9953L30.2183 45.0001C30.2309 45.0001 30.2435 45 30.2562 44.9997C35.3662 44.8907 39.6184 42.7871 42.2296 39.0764C42.7872 38.2841 42.5968 37.1897 41.8044 36.632C41.012 36.0743 39.9176 36.2646 39.36 37.0571C37.4101 39.828 34.1578 41.4023 30.1998 41.4913L14.4205 41.4866C7.68946 41.3122 3.50877 36.7109 3.50877 29.4738C3.50877 24.6095 6.13538 20.0982 11.3155 16.0654C14.7286 13.4082 18.2023 11.8325 19.2081 11.4037H24.8546L24.9353 11.4739C31.1481 16.8788 34.2983 22.3741 34.2983 27.8072C34.2983 28.7761 35.0837 29.5616 36.0527 29.5616C37.0216 29.5616 37.807 28.7761 37.807 27.8072C37.807 23.9894 36.5699 20.175 34.1274 16.4514C37.9094 19.4991 41.4912 23.8658 41.4912 29.4738C41.4912 30.4427 42.2767 31.2281 43.2456 31.2281C44.2145 31.2281 45 30.4427 45 29.4738C45 26.1269 44.0005 22.895 42.0294 19.8678ZM24.7619 7.89476H20.1502L18.7925 4.38054C21.2315 4.8526 23.6802 4.85243 26.1198 4.3801L24.7619 7.89476ZM24.2088 36.9299C24.2088 37.8988 23.4233 38.6842 22.4544 38.6842C21.4855 38.6842 20.7 37.8989 20.6997 36.93V35.9612C18.3248 35.879 16.4875 34.0231 16.4875 31.6669C16.4875 30.698 17.273 29.9125 18.2419 29.9125C19.2108 29.9125 19.9963 30.698 19.9963 31.6669C19.9963 32.1852 20.4327 32.4563 20.8638 32.4563H23.4766C24.295 32.4563 24.9122 31.8812 24.9122 31.1185V30.688C24.9122 29.9088 24.2816 29.2985 23.4766 29.2985H21.8689C19.148 29.2985 16.9344 27.0555 16.9344 24.2985V23.6586C16.9344 22.3327 17.4518 21.0963 18.3913 20.1769C19.0363 19.5458 19.8316 19.1129 20.7 18.9079V17.7194C20.7 16.7505 21.4855 15.9651 22.4544 15.9651C23.4233 15.9651 24.2088 16.7505 24.2088 17.7194V18.8476C26.2544 19.2235 27.807 20.978 27.807 23.0805C27.807 24.0494 27.0215 24.8349 26.0526 24.8349C25.0837 24.8349 24.2982 24.0494 24.2982 23.0805C24.2982 22.58 23.836 22.2809 23.3893 22.2809H21.869C21.0562 22.2809 20.4433 22.8731 20.4433 23.6586V24.2984C20.4433 25.1067 21.0961 25.7896 21.869 25.7896H23.4766C24.7937 25.7896 26.0308 26.2909 26.9599 27.201C27.9022 28.1238 28.421 29.3622 28.421 30.6879V31.1185C28.421 33.5918 26.6221 35.5767 24.2088 35.9138V36.9299Z" fill="#CCA575"/>
</svg>
