<svg width="20" height="15" viewBox="0 0 20 15" fill="none" xmlns="http://www.w3.org/2000/svg">
<path d="M10.5 9C11.3284 9 12 8.32843 12 7.5C12 6.67157 11.3284 6 10.5 6C9.67157 6 9 6.67157 9 7.5C9 8.32843 9.67157 9 10.5 9Z" fill="#50473C"/>
<path fill-rule="evenodd" clip-rule="evenodd" d="M6 7.5C6 5.0187 8.0187 3 10.5 3C12.9813 3 15 5.0187 15 7.5C15 9.9813 12.9813 12 10.5 12C8.0187 12 6 9.9813 6 7.5ZM7.57895 7.5C7.57895 9.11069 8.88931 10.4211 10.5 10.4211C12.1107 10.4211 13.4211 9.11069 13.4211 7.5C13.4211 5.88931 12.1107 4.57895 10.5 4.57895C8.88931 4.57895 7.57895 5.88931 7.57895 7.5Z" fill="#50473C"/>
<path d="M19.4941 5.81231C19.0793 5.18191 17.9089 3.56354 16.0037 2.15374C14.0726 0.724654 12.0585 0 10.0175 0C7.97945 0 5.96367 0.722682 4.02616 2.14791C2.11256 3.55554 0.932748 5.1719 0.514309 5.80149C-0.171436 6.8333 -0.171436 8.16666 0.514309 9.19848C0.932748 9.8281 2.11256 11.4445 4.02616 12.8521C5.96367 14.2773 7.97942 15 10.0175 15C13.1553 15 15.6784 13.2685 17.2425 11.816C17.5571 11.5238 17.5729 11.0345 17.2776 10.7231C16.9823 10.4116 16.488 10.3961 16.1734 10.6883C14.8149 11.9498 12.6442 13.4537 10.0175 13.4537C6.22433 13.4537 3.07971 10.2448 1.81959 8.34872C1.47693 7.83314 1.47693 7.16694 1.81959 6.65136C3.07971 4.75529 6.22433 1.54646 10.0175 1.54646C13.8105 1.54646 16.9359 4.75838 18.1847 6.65623C18.522 7.16883 18.522 7.83124 18.1847 8.34384C17.9493 8.70169 18.0515 9.18065 18.4131 9.4137C18.7746 9.64671 19.2586 9.54557 19.4941 9.18769C20.1686 8.16245 20.1686 6.83751 19.4941 5.81231Z" fill="#50473C"/>
</svg>
