<svg width="30" height="30" viewBox="0 0 30 30" fill="none" xmlns="http://www.w3.org/2000/svg">
<path fill-rule="evenodd" clip-rule="evenodd" d="M0 15C0 6.70939 6.70881 0 15 0C23.2906 0 30 6.70881 30 15C30 23.2906 23.2912 30 15 30C6.70939 30 0 23.2912 0 15ZM2.34375 15C2.34375 21.9952 8.00432 27.6562 15 27.6562C21.9952 27.6562 27.6562 21.9957 27.6562 15C27.6562 8.00479 21.9957 2.34375 15 2.34375C8.00479 2.34375 2.34375 8.00432 2.34375 15Z" fill="#50473C"/>
<path d="M15.4167 7.5C14.7264 7.5 14.1667 8.07468 14.1667 8.78362V17.0497C14.1667 17.7587 14.7264 18.3333 15.4167 18.3333C16.1071 18.3333 16.6667 17.7587 16.6667 17.0497V8.78362C16.6667 8.07468 16.1071 7.5 15.4167 7.5Z" fill="#50473C"/>
<path d="M15.4167 22.5C16.1071 22.5 16.6667 21.9404 16.6667 21.25C16.6667 20.5596 16.1071 20 15.4167 20C14.7264 20 14.1667 20.5596 14.1667 21.25C14.1667 21.9404 14.7264 22.5 15.4167 22.5Z" fill="#50473C"/>
</svg>
