<svg width="22" height="25" viewBox="0 0 22 25" fill="none" xmlns="http://www.w3.org/2000/svg">
<path d="M16.5 19C17.3284 19 18 18.3284 18 17.5C18 16.6716 17.3284 16 16.5 16C15.6716 16 15 16.6716 15 17.5C15 18.3284 15.6716 19 16.5 19Z" fill="black"/>
<path fill-rule="evenodd" clip-rule="evenodd" d="M22 16.6992C22 17.2386 21.5603 17.6758 21.0179 17.6758C20.4754 17.6758 20.0357 17.2386 20.0357 16.6992V13.0859C20.0357 12.009 19.1545 11.1328 18.0714 11.1328H3.92857C2.84546 11.1328 1.96429 12.009 1.96429 13.0859V21.0938C1.96429 22.1707 2.84546 23.0469 3.92857 23.0469H18.0714C19.1545 23.0469 20.0357 22.1707 20.0357 21.0938C20.0357 20.5544 20.4754 20.1172 21.0179 20.1172C21.5603 20.1172 22 20.5544 22 21.0938C22 23.2477 20.2376 25 18.0714 25H3.92857C1.76236 25 0 23.2477 0 21.0938V13.0859C0 10.932 1.76236 9.17969 3.92857 9.17969H5.10533V5.73564C5.10533 2.573 7.74886 0 10.9982 0C14.2475 0 16.891 2.573 16.891 5.73564V9.17969H18.0714C20.2376 9.17969 22 10.932 22 13.0859V16.6992ZM7.06961 5.73564V9.17969H14.9268V5.73564C14.9268 3.64995 13.1644 1.95312 10.9982 1.95312C8.83197 1.95312 7.06961 3.64995 7.06961 5.73564Z" fill="#50473C"/>
<path d="M9.5 19C10.3284 19 11 18.3284 11 17.5C11 16.6716 10.3284 16 9.5 16C8.67157 16 8 16.6716 8 17.5C8 18.3284 8.67157 19 9.5 19Z" fill="black"/>
<path d="M5.5 19C6.32843 19 7 18.3284 7 17.5C7 16.6716 6.32843 16 5.5 16C4.67157 16 4 16.6716 4 17.5C4 18.3284 4.67157 19 5.5 19Z" fill="black"/>
<path d="M12.5 19C13.3284 19 14 18.3284 14 17.5C14 16.6716 13.3284 16 12.5 16C11.6716 16 11 16.6716 11 17.5C11 18.3284 11.6716 19 12.5 19Z" fill="black"/>
</svg>
