<svg width="30" height="28" viewBox="0 0 30 28" fill="none" xmlns="http://www.w3.org/2000/svg">
<path fill-rule="evenodd" clip-rule="evenodd" d="M0 14C0 21.7191 6.43702 28 14.3479 28C20.2838 28 25.5248 24.5153 27.7017 19.1227C27.8999 18.6326 27.652 18.0778 27.15 17.8843C26.6466 17.6935 26.0791 17.9314 25.8809 18.4241C24.0012 23.0809 19.4739 26.0909 14.3479 26.0909C7.51558 26.0909 1.95652 20.6664 1.95652 14C1.95652 7.3336 7.51558 1.90908 14.3479 1.90908C19.4739 1.90908 24.0012 4.91905 25.8809 9.57733C26.0803 10.0697 26.6477 10.3079 27.15 10.1168C27.652 9.92223 27.8999 9.36852 27.7017 8.87867C25.5248 3.48468 20.2838 0 14.3479 0C6.43702 0 0 6.28095 0 14ZM15.3261 20.0453C15.0756 20.0453 14.8253 19.9526 14.6347 19.7655L9.43869 14.6954C9.2489 14.5213 9.13033 14.2741 9.13033 14C9.13033 13.8581 9.16212 13.7234 9.21912 13.6023C9.26631 13.5015 9.3324 13.4071 9.41741 13.3242L14.6347 8.23337C15.0168 7.86051 15.6364 7.86051 16.0187 8.23337C16.4009 8.60624 16.4009 9.21075 16.0187 9.58362L12.4709 13.0455H29.0217C29.5617 13.0455 30 13.4731 30 14C30 14.5269 29.5617 14.9545 29.0217 14.9545H12.4709L16.0187 18.4164C16.4009 18.7892 16.4009 19.3938 16.0187 19.7666C15.827 19.9526 15.5764 20.0453 15.3261 20.0453Z" fill="#CCA575"/>
</svg>
