<svg width="23" height="23" viewBox="0 0 23 23" fill="none" xmlns="http://www.w3.org/2000/svg">
<path fill-rule="evenodd" clip-rule="evenodd" d="M20.9645 11.1804C20.8721 11.3693 20.8721 11.5861 20.9645 11.7751L21.8206 13.5265C22.2973 14.5017 21.9196 15.6641 20.9608 16.1728L19.2387 17.0865C19.053 17.1851 18.9256 17.3605 18.8892 17.5676L18.5524 19.4877C18.3649 20.5568 17.3764 21.2753 16.3014 21.1232L14.3711 20.8502C14.1628 20.821 13.9568 20.8878 13.8056 21.034L12.4044 22.3894C12.0145 22.7667 11.5137 22.9554 11.0132 22.9554C10.5126 22.9555 10.0122 22.7668 9.62203 22.3894L8.22091 21.034C8.06973 20.8878 7.86358 20.8206 7.65541 20.8502L5.72516 21.1232C5.62881 21.1369 5.53296 21.1435 5.43849 21.1435C4.47935 21.1436 3.64481 20.461 3.47408 19.4878L3.13728 17.5676C3.10092 17.3605 2.97355 17.1851 2.78775 17.0865L1.06567 16.1728C0.10684 15.6641 -0.270844 14.5017 0.205835 13.5266L1.06199 11.7751C1.15435 11.5862 1.15435 11.3695 1.06199 11.1805L0.205879 9.4291C-0.270799 8.45391 0.106885 7.29149 1.06571 6.7828L2.7878 5.86907C2.97355 5.77048 3.10092 5.59514 3.13728 5.388L3.47408 3.46788C3.66162 2.39876 4.65021 1.68025 5.72512 1.83237L7.65537 2.10541C7.86367 2.13474 8.06968 2.06789 8.22086 1.92164L9.62203 0.566072C10.4021 -0.188713 11.6243 -0.188668 12.4045 0.566072L13.8056 1.9215C13.9567 2.06771 14.1628 2.13469 14.3711 2.10528L16.3014 1.83224C17.3759 1.6802 18.3649 2.39863 18.5524 3.46775L18.8892 5.38796C18.9255 5.59505 19.0529 5.77044 19.2387 5.86898L20.9608 6.78271C21.9196 7.29144 22.2973 8.45377 21.8206 9.42896L20.9645 11.1804ZM17.9053 15.5611L19.4689 14.7252C19.7635 14.5677 19.8795 14.2079 19.733 13.906L18.9557 12.3038C18.7078 11.793 18.7078 11.2069 18.9557 10.6961L19.733 9.09388C19.8795 8.79205 19.7634 8.43231 19.4689 8.27485L17.9052 7.43896C17.4067 7.17249 17.0648 6.69839 16.9672 6.13829L16.6614 4.38165C16.6038 4.05074 16.2999 3.8284 15.9699 3.87544L14.2172 4.12523C13.6584 4.20492 13.1052 4.0238 12.6995 3.62841L11.4273 2.38844C11.1876 2.1549 10.8122 2.1549 10.5726 2.38844L9.3003 3.62841C8.89463 4.02376 8.34134 4.20492 7.78261 4.12523L6.02994 3.87544C5.69967 3.82844 5.39605 4.05074 5.33841 4.38165L5.0326 6.13825C4.9351 6.69835 4.59318 7.17241 4.09465 7.43896L2.531 8.27485C2.23643 8.43231 2.12041 8.79205 2.26684 9.09388L3.04423 10.6961C3.29207 11.207 3.29207 11.793 3.04423 12.3039L2.26684 13.9061C2.12041 14.2079 2.23643 14.5677 2.531 14.7251L4.09465 15.561C4.59322 15.8275 4.9351 16.3016 5.03264 16.8617L5.33849 18.6183C5.39614 18.9493 5.70003 19.1716 6.03002 19.1246L7.78269 18.8748C7.86924 18.8624 7.95566 18.8564 8.0414 18.8564C8.50931 18.8564 8.95752 19.0374 9.30038 19.3716L10.5726 20.6116C10.8123 20.8451 11.1878 20.8451 11.4274 20.6116L12.6996 19.3716C13.1053 18.9763 13.6584 18.795 14.2173 18.8748L15.97 19.1246C16.3003 19.1716 16.6039 18.9493 16.6615 18.6184L16.9673 16.8618C17.0648 16.3017 17.4067 15.8276 17.9053 15.5611ZM8.36528 5.5199C7.02688 5.5199 5.93799 6.6088 5.93799 7.94719C5.93799 9.28558 7.02688 10.3745 8.36528 10.3745C9.70367 10.3745 10.7926 9.28558 10.7926 7.94719C10.7926 6.6088 9.70367 5.5199 8.36528 5.5199ZM8.36528 9.05047C7.75692 9.05047 7.26199 8.55555 7.26199 7.94714C7.26199 7.33879 7.75692 6.84386 8.36528 6.84386C8.97363 6.84386 9.4686 7.33879 9.4686 7.94714C9.46856 8.55555 8.97363 9.05047 8.36528 9.05047ZM14.914 6.64076C15.1725 6.38225 15.5917 6.38225 15.8501 6.64076C16.1087 6.89932 16.1087 7.31843 15.8501 7.57699L7.11238 16.3147C6.98317 16.444 6.81369 16.5086 6.64431 16.5086C6.47493 16.5086 6.3055 16.444 6.17624 16.3147C5.91773 16.0562 5.91773 15.637 6.17624 15.3785L14.914 6.64076ZM11.2338 15.0083C11.2338 13.6699 12.3227 12.581 13.6611 12.581C14.9995 12.581 16.0884 13.6699 16.0884 15.0083C16.0884 16.3467 14.9995 17.4356 13.6611 17.4356C12.3227 17.4356 11.2338 16.3467 11.2338 15.0083ZM12.5578 15.0083C12.5578 15.6167 13.0527 16.1116 13.6611 16.1116C14.2695 16.1116 14.7644 15.6167 14.7644 15.0083C14.7644 14.4 14.2695 13.905 13.6611 13.905C13.0527 13.905 12.5578 14.4 12.5578 15.0083Z" fill="#C7B299"/>
</svg>
