<svg width="23" height="23" viewBox="0 0 23 23" fill="none" xmlns="http://www.w3.org/2000/svg">
<path d="M16.5504 4.85229H10.1755C9.67925 4.85229 9.27698 5.25457 9.27698 5.75087C9.27698 6.24716 9.67925 6.64944 10.1755 6.64944H16.5504C17.0467 6.64944 17.449 6.24716 17.449 5.75087C17.449 5.25457 17.0467 4.85229 16.5504 4.85229Z" fill="#C7B299"/>
<path d="M16.5504 8.44653H10.1755C9.67925 8.44653 9.27698 8.84881 9.27698 9.34511C9.27698 9.8414 9.67925 10.2437 10.1755 10.2437H16.5504C17.0467 10.2437 17.449 9.8414 17.449 9.34511C17.449 8.84881 17.0467 8.44653 16.5504 8.44653Z" fill="#C7B299"/>
<path d="M12.9162 12.0408H10.1755C9.67925 12.0408 9.27698 12.443 9.27698 12.9393C9.27698 13.4356 9.67925 13.8379 10.1755 13.8379H12.9162C13.4125 13.8379 13.8148 13.4356 13.8148 12.9393C13.8148 12.443 13.4125 12.0408 12.9162 12.0408Z" fill="#C7B299"/>
<path fill-rule="evenodd" clip-rule="evenodd" d="M21.0932 11.3219C21.0932 11.8182 20.6909 12.2205 20.1946 12.2205C19.6983 12.2205 19.296 11.8182 19.2961 11.322V3.59429C19.2961 2.60336 18.4899 1.79714 17.4989 1.79714H9.23207C8.24113 1.79714 7.43492 2.60336 7.43492 3.59429V15.8142C7.43492 16.2942 7.62193 16.7456 7.96145 17.085C8.30084 17.4244 8.75208 17.6113 9.23207 17.6113H9.23247L17.4993 17.6093C18.49 17.6091 19.296 16.8028 19.296 15.8121C19.296 15.3158 19.6983 14.9136 20.1946 14.9136C20.6909 14.9136 21.0931 15.3158 21.0931 15.8121C21.0931 17.6417 19.7187 19.1566 17.9482 19.3784V19.4058C17.9482 21.3877 16.3357 23 14.3539 23H5.63778C3.65587 23 2.04349 21.3876 2.04349 19.4058V7.18525C2.04349 5.20335 3.65591 3.59096 5.63778 3.59096C5.63962 1.61058 7.25128 0 9.23207 0H17.4989C19.4808 0 21.0932 1.61238 21.0932 3.59429V11.3219ZM9.23296 19.4084H9.23207C8.27209 19.4084 7.36974 19.0347 6.69083 18.3559C6.0118 17.6771 5.63782 16.7743 5.63782 15.8141V5.38802C4.64689 5.38802 3.84068 6.19423 3.84068 7.18516V19.4057C3.84068 20.3966 4.64689 21.2028 5.63782 21.2028H14.3539C15.3445 21.2028 16.1505 20.3971 16.151 19.4067L9.23296 19.4084Z" fill="#C7B299"/>
</svg>
