<svg width="23" height="23" viewBox="0 0 23 23" fill="none" xmlns="http://www.w3.org/2000/svg">
<path fill-rule="evenodd" clip-rule="evenodd" d="M23 14.9141C23 15.4103 22.5978 15.8125 22.1016 15.8125C21.6054 15.8125 21.2031 15.4103 21.2031 14.9141V5.39062C21.2031 4.39983 20.397 3.59375 19.4062 3.59375H18.2383V4.49219C18.2383 4.98839 17.8361 5.39062 17.3398 5.39062C16.8436 5.39062 16.4414 4.98839 16.4414 4.49219V3.59375H12.3535V4.49219C12.3535 4.98839 11.9513 5.39062 11.4551 5.39062C10.9589 5.39062 10.5566 4.98839 10.5566 4.49219V3.59375H6.51367V4.49219C6.51367 4.98839 6.11144 5.39062 5.61523 5.39062C5.11903 5.39062 4.7168 4.98839 4.7168 4.49219V3.59375H3.59375C2.60295 3.59375 1.79688 4.39983 1.79688 5.39062V19.4062C1.79688 20.397 2.60295 21.2031 3.59375 21.2031H19.4062C20.397 21.2031 21.2031 20.397 21.2031 19.4062C21.2031 18.91 21.6054 18.5078 22.1016 18.5078C22.5978 18.5078 23 18.91 23 19.4062C23 21.3878 21.3878 23 19.4062 23H3.59375C1.61216 23 0 21.3878 0 19.4062V5.39062C0 3.40903 1.61216 1.79688 3.59375 1.79688H4.7168V0.898438C4.7168 0.40223 5.11903 0 5.61523 0C6.11144 0 6.51367 0.40223 6.51367 0.898438V1.79688H10.5566V0.898438C10.5566 0.40223 10.9589 0 11.4551 0C11.9513 0 12.3535 0.40223 12.3535 0.898438V1.79688H16.4414V0.898438C16.4414 0.40223 16.8436 0 17.3398 0C17.8361 0 18.2383 0.40223 18.2383 0.898438V1.79688H19.4062C21.3878 1.79688 23 3.40903 23 5.39062V14.9141ZM6.51367 9.43359C6.51367 9.92979 6.11143 10.332 5.61523 10.332C5.11904 10.332 4.7168 9.92979 4.7168 9.43359C4.7168 8.9374 5.11904 8.53516 5.61523 8.53516C6.11143 8.53516 6.51367 8.9374 6.51367 9.43359ZM14.3301 9.43359C14.3301 9.92979 13.9278 10.332 13.4316 10.332C12.9354 10.332 12.5332 9.92979 12.5332 9.43359C12.5332 8.9374 12.9354 8.53516 13.4316 8.53516C13.9278 8.53516 14.3301 8.9374 14.3301 9.43359ZM17.3398 10.332C17.836 10.332 18.2383 9.92979 18.2383 9.43359C18.2383 8.9374 17.836 8.53516 17.3398 8.53516C16.8437 8.53516 16.4414 8.9374 16.4414 9.43359C16.4414 9.92979 16.8437 10.332 17.3398 10.332ZM6.51367 13.3418C6.51367 13.838 6.11143 14.2402 5.61523 14.2402C5.11904 14.2402 4.7168 13.838 4.7168 13.3418C4.7168 12.8456 5.11904 12.4434 5.61523 12.4434C6.11143 12.4434 6.51367 12.8456 6.51367 13.3418ZM5.61523 18.1484C6.11143 18.1484 6.51367 17.7462 6.51367 17.25C6.51367 16.7538 6.11143 16.3516 5.61523 16.3516C5.11904 16.3516 4.7168 16.7538 4.7168 17.25C4.7168 17.7462 5.11904 18.1484 5.61523 18.1484ZM10.4219 9.43359C10.4219 9.92979 10.0196 10.332 9.52344 10.332C9.02724 10.332 8.625 9.92979 8.625 9.43359C8.625 8.9374 9.02724 8.53516 9.52344 8.53516C10.0196 8.53516 10.4219 8.9374 10.4219 9.43359ZM9.52344 14.2402C10.0196 14.2402 10.4219 13.838 10.4219 13.3418C10.4219 12.8456 10.0196 12.4434 9.52344 12.4434C9.02724 12.4434 8.625 12.8456 8.625 13.3418C8.625 13.838 9.02724 14.2402 9.52344 14.2402ZM10.4219 17.25C10.4219 17.7462 10.0196 18.1484 9.52344 18.1484C9.02724 18.1484 8.625 17.7462 8.625 17.25C8.625 16.7538 9.02724 16.3516 9.52344 16.3516C10.0196 16.3516 10.4219 16.7538 10.4219 17.25ZM13.4316 14.2402C13.9278 14.2402 14.3301 13.838 14.3301 13.3418C14.3301 12.8456 13.9278 12.4434 13.4316 12.4434C12.9354 12.4434 12.5332 12.8456 12.5332 13.3418C12.5332 13.838 12.9354 14.2402 13.4316 14.2402ZM18.2383 13.3418C18.2383 13.838 17.836 14.2402 17.3398 14.2402C16.8437 14.2402 16.4414 13.838 16.4414 13.3418C16.4414 12.8456 16.8437 12.4434 17.3398 12.4434C17.836 12.4434 18.2383 12.8456 18.2383 13.3418ZM13.4316 18.1484C13.9278 18.1484 14.3301 17.7462 14.3301 17.25C14.3301 16.7538 13.9278 16.3516 13.4316 16.3516C12.9354 16.3516 12.5332 16.7538 12.5332 17.25C12.5332 17.7462 12.9354 18.1484 13.4316 18.1484Z" fill="#C7B299"/>
</svg>
