<svg width="23" height="23" viewBox="0 0 23 23" fill="none" xmlns="http://www.w3.org/2000/svg">
<path d="M17.0011 9.88281C17.0011 9.38661 16.5989 8.98438 16.1027 8.98438H6.84875C6.35255 8.98438 5.95032 9.38661 5.95032 9.88281C5.95032 10.379 6.35255 10.7812 6.84875 10.7812H16.1027C16.5989 10.7812 17.0011 10.379 17.0011 9.88281Z" fill="#C7B299"/>
<path d="M6.84875 12.5781C6.35255 12.5781 5.95032 12.9804 5.95032 13.4766C5.95032 13.9728 6.35255 14.375 6.84875 14.375H12.469C12.9652 14.375 13.3674 13.9728 13.3674 13.4766C13.3674 12.9804 12.9652 12.5781 12.469 12.5781H6.84875Z" fill="#C7B299"/>
<path d="M8.96007 21.2031H5.95529C4.96449 21.2031 4.15842 20.397 4.15842 19.4062V3.59375C4.15842 2.60295 4.96449 1.79688 5.95529 1.79688H17.0011C17.9919 1.79688 18.798 2.60295 18.798 3.59375V9.11914C18.798 9.61535 19.2002 10.0176 19.6964 10.0176C20.1926 10.0176 20.5948 9.61535 20.5948 9.11914V3.59375C20.5948 1.61216 18.9827 0 17.0011 0H5.95529C3.9737 0 2.36154 1.61216 2.36154 3.59375V19.4062C2.36154 21.3878 3.9737 23 5.95529 23H8.96007C9.45628 23 9.85851 22.5978 9.85851 22.1016C9.85851 21.6054 9.45628 21.2031 8.96007 21.2031Z" fill="#C7B299"/>
<path fill-rule="evenodd" clip-rule="evenodd" d="M22.1862 13.008C21.1353 11.9571 19.4254 11.9571 18.3752 13.0073L13.4426 17.9289C13.3379 18.0335 13.2606 18.1622 13.2176 18.3038L12.1433 21.8403C12.0481 22.1538 12.1311 22.4943 12.3599 22.7288C12.5313 22.9045 12.7642 22.9999 13.003 22.9999C13.083 22.9999 13.1636 22.9892 13.2428 22.9672L16.8692 21.9627C17.0184 21.9214 17.1544 21.8422 17.264 21.7328L22.1862 16.8198C23.2372 15.7689 23.2372 14.059 22.1862 13.008ZM16.1618 20.2942L14.3375 20.7995L14.8713 19.0418L18.1996 15.7209L19.4704 16.9918L16.1618 20.2942ZM20.7422 15.7224L20.9163 15.5487C21.266 15.1989 21.266 14.629 20.9157 14.2787C20.5654 13.9284 19.9954 13.9284 19.6451 14.2787L19.4716 14.4518L20.7422 15.7224Z" fill="#C7B299"/>
<path d="M16.1027 5.39062H6.84875C6.35255 5.39062 5.95032 5.79286 5.95032 6.28906C5.95032 6.78527 6.35255 7.1875 6.84875 7.1875H16.1027C16.5989 7.1875 17.0011 6.78527 17.0011 6.28906C17.0011 5.79286 16.5989 5.39062 16.1027 5.39062Z" fill="#C7B299"/>
</svg>
