<svg width="23" height="23" viewBox="0 0 23 23" fill="none" xmlns="http://www.w3.org/2000/svg">
<path d="M0.261103 10.5825L9.62237 0.756862C9.63436 0.744215 9.6468 0.731942 9.65947 0.720045C10.6817 -0.236977 12.2263 -0.240397 13.2524 0.712128C13.2652 0.723979 13.2776 0.736205 13.2897 0.748759L22.7362 10.5797C23.0874 10.9452 23.088 11.5384 22.7375 11.9046C22.3869 12.2708 21.8181 12.2713 21.4669 11.9059L20.7539 11.1639V19.2527C20.7539 21.3189 19.1418 23 17.1602 23H13.9258C13.4296 23 13.0274 22.5806 13.0274 22.0632V14.428H9.88282V22.0632C9.88282 22.5806 9.48059 23 8.98439 23H5.83986C3.85826 23 2.24611 21.3189 2.24611 19.2527C2.24611 18.7353 2.64834 18.3158 3.14455 18.3158C3.64075 18.3158 4.04298 18.7353 4.04298 19.2527C4.04298 20.2858 4.84906 21.1263 5.83986 21.1263H8.08595V13.4911C8.08595 12.9737 8.48818 12.5543 8.98439 12.5543H13.9258C14.422 12.5543 14.8242 12.9737 14.8242 13.4911V21.1263H17.1602C18.151 21.1263 18.957 20.2858 18.957 19.2527V9.32224C18.957 9.31287 18.9572 9.30354 18.9574 9.29427L12.0415 2.097C11.7049 1.79895 11.2112 1.80007 10.8759 2.09958L4.04298 9.27151V14.5685C4.04298 15.0859 3.64075 15.5053 3.14455 15.5053C2.64834 15.5053 2.24611 15.0859 2.24611 14.5685V11.1575L1.5358 11.9031C1.3602 12.0874 1.1294 12.1796 0.898453 12.1796C0.669487 12.1796 0.440474 12.0889 0.265234 11.9074C-0.0867729 11.5427 -0.0886593 10.9496 0.261103 10.5825Z" fill="#C7B299"/>
</svg>
