<svg width="23" height="27" viewBox="0 0 23 27" fill="none" xmlns="http://www.w3.org/2000/svg">
<path fill-rule="evenodd" clip-rule="evenodd" d="M21.0635 19.2447C21.6361 19.1374 22.1871 19.5145 22.2944 20.0871C22.4684 21.016 22.2222 21.9658 21.6187 22.6929C21.0158 23.4193 20.1285 23.8359 19.1845 23.8359H14.3539C14.3539 25.5806 12.9345 27 11.1899 27C9.4452 27 8.0258 25.5806 8.0258 23.8359H3.17482C2.23087 23.8359 1.34361 23.4193 0.740703 22.6929C0.13721 21.9658 -0.109059 21.016 0.065017 20.0871C0.429682 18.1413 1.15069 16.8801 1.78682 15.7673L1.78706 15.7668L1.78709 15.7668C2.43286 14.6372 2.94294 13.745 2.94294 12.3398V10.7578C2.94294 6.60134 6.08285 3.12235 10.1148 2.59922V1.05469C10.1148 0.472184 10.587 0 11.1695 0C11.752 0 12.2242 0.472184 12.2242 1.05469V2.59611C14.0403 2.82519 15.7203 3.65518 17.0286 4.98519C18.5553 6.53711 19.3961 8.58721 19.3961 10.7578V12.3398C19.3961 13.4093 19.6915 14.1646 20.2019 15.1076C20.4792 15.6198 20.2887 16.2599 19.7764 16.5371C19.6169 16.6235 19.4448 16.6644 19.2753 16.6644C18.9006 16.6644 18.5378 16.4643 18.3469 16.1116C17.8339 15.1639 17.2867 14.0127 17.2867 12.3398V10.7578C17.2867 7.43186 14.5924 4.6894 11.2793 4.64126H11.0799C7.75559 4.68951 5.05227 7.43196 5.05227 10.7578V12.3398C5.05227 14.3054 4.32327 15.5806 3.61826 16.8137L3.61817 16.8139C3.0377 17.8293 2.43747 18.8792 2.13832 20.4755C2.05869 20.9003 2.24543 21.203 2.36376 21.3457C2.48183 21.4879 2.74424 21.7266 3.17482 21.7266H19.1845C19.6151 21.7266 19.8775 21.4879 19.9956 21.3457C20.1139 21.203 20.3007 20.9003 20.221 20.4755C20.1138 19.9031 20.491 19.352 21.0635 19.2447ZM10.1352 23.8359C10.1352 24.4175 10.6083 24.8906 11.1899 24.8906C11.7715 24.8906 12.2445 24.4175 12.2445 23.8359H10.1352Z" fill="#CCA575"/>
</svg>
