<svg width="20" height="20" viewBox="0 0 20 20" fill="none" xmlns="http://www.w3.org/2000/svg">
<path fill-rule="evenodd" clip-rule="evenodd" d="M2.28789 2.28823C5.33907 -0.762744 10.3051 -0.762744 13.3563 2.28823C16.0741 5.00653 16.3651 9.23742 14.2426 12.2871C14.5462 12.3512 14.8365 12.4987 15.0714 12.7328L19.5148 17.1774C20.1617 17.8222 20.1617 18.8685 19.5148 19.5154C18.8706 20.1615 17.8242 20.1615 17.1767 19.5154L12.7332 15.0722C12.4971 14.8361 12.3502 14.5464 12.2861 14.2428C9.23688 16.3639 5.00504 16.0729 2.28789 13.3565C-0.762629 10.3049 -0.762629 5.33987 2.28789 2.28823ZM3.69078 11.9537C5.96809 14.2316 9.6754 14.2316 11.9534 11.9537C14.2313 9.67592 14.2313 5.96951 11.9534 3.69169C9.6754 1.41454 5.96809 1.41454 3.69078 3.69169C1.41414 5.96951 1.41414 9.67592 3.69078 11.9537Z" fill="#50473C"/>
</svg>
