<svg width="41" height="45" viewBox="0 0 41 45" fill="none" xmlns="http://www.w3.org/2000/svg">
<path fill-rule="evenodd" clip-rule="evenodd" d="M13.5781 43.2422C13.5781 44.2131 12.7912 45 11.8203 45H7.77734C3.9002 45 0.746094 41.8459 0.746094 37.9688V7.03125C0.746094 3.15411 3.9002 0 7.77734 0H29.3888C33.2656 0 36.4201 3.15411 36.4201 7.03125V17.4902C36.4201 18.4612 35.6328 19.248 34.6623 19.248C33.6913 19.248 32.9044 18.4612 32.9044 17.4902V7.03125C32.9044 5.09285 31.3272 3.51562 29.3888 3.51562H7.77734C5.83894 3.51562 4.26172 5.09285 4.26172 7.03125V37.9688C4.26172 39.9072 5.83894 41.4844 7.77734 41.4844H11.8203C12.7912 41.4844 13.5781 42.2713 13.5781 43.2422ZM29.3885 12.3047C29.3885 11.3338 28.6016 10.5469 27.6307 10.5469H9.52521C8.55463 10.5469 7.7674 11.3338 7.7674 12.3047C7.7674 13.2756 8.55463 14.0625 9.52521 14.0625H27.6307C28.6016 14.0625 29.3885 13.2756 29.3885 12.3047ZM20.6094 17.5781C21.5803 17.5781 22.3672 18.365 22.3672 19.3359C22.3672 20.3069 21.5803 21.0938 20.6094 21.0938H9.52521C8.55463 21.0938 7.7674 20.3069 7.7674 19.3359C7.7674 18.365 8.55463 17.5781 9.52521 17.5781H20.6094ZM9.52521 24.6094C8.55463 24.6094 7.7674 25.3963 7.7674 26.3672C7.7674 27.3381 8.55463 28.125 9.52521 28.125H16.8301C17.801 28.125 18.5879 27.3381 18.5879 26.3672C18.5879 25.3963 17.801 24.6094 16.8301 24.6094H9.52521ZM37.4538 45C38.5178 45 39.5158 44.5235 40.1922 43.6923C40.8781 42.8491 41.1452 41.7559 40.9248 40.693C40.9149 40.6453 40.9032 40.5986 40.8895 40.5523C40.2962 37.8815 38.8096 35.456 36.6899 33.7074C35.8708 33.0314 34.9706 32.4694 34.0161 32.03C35.0797 30.8218 35.7266 29.2387 35.7266 27.5067C35.7266 23.7263 32.6514 20.6512 28.8711 20.6512C25.0908 20.6512 22.0156 23.7263 22.0156 27.5067C22.0156 29.2387 22.6624 30.8218 23.7261 32.03C22.7716 32.4694 21.8714 33.0318 21.0523 33.7074C18.8893 35.4917 17.3852 37.9808 16.8174 40.7164C16.598 41.7731 16.862 42.8584 17.5418 43.6937C18.2174 44.5238 19.2186 45 20.2884 45H37.4538ZM25.5312 27.5067C25.5312 29.3483 27.0295 30.8465 28.8711 30.8465C30.7127 30.8465 32.2109 29.3483 32.2109 27.5067C32.2109 25.6651 30.7127 24.1668 28.8711 24.1668C27.0295 24.1668 25.5312 25.6651 25.5312 27.5067ZM37.4829 41.433C37.483 41.4336 37.4832 41.4341 37.4833 41.4346C37.4789 41.4633 37.4582 41.4807 37.4544 41.4839C37.4541 41.4841 37.4539 41.4843 37.4538 41.4844H20.2884C20.2825 41.4844 20.2794 41.4837 20.2788 41.4837C20.2788 41.4837 20.2786 41.4836 20.2783 41.4834C20.2746 41.4811 20.2523 41.4674 20.2595 41.4312C21.1034 37.3659 24.7255 34.415 28.8711 34.415C33.0167 34.415 36.6384 37.3659 37.4827 41.4312C37.4827 41.4317 37.4828 41.4324 37.4829 41.433Z" fill="#CCA575"/>
</svg>
