<svg width="28" height="28" viewBox="0 0 28 28" fill="none" xmlns="http://www.w3.org/2000/svg">
<path fill-rule="evenodd" clip-rule="evenodd" d="M18.814 13.389C19.3835 13.5736 19.9432 13.7939 20.4917 14.0497C21.0479 14.309 21.2844 14.9615 21.02 15.5071C20.7557 16.0527 20.0906 16.2846 19.5344 16.0254C17.9737 15.2976 16.3052 14.9092 14.5703 14.8693C14.4712 14.8731 14.3717 14.875 14.2718 14.875C14.1728 14.875 14.0743 14.8731 13.9762 14.8694C8.31491 15.0037 3.41255 18.9864 2.25548 24.4385C2.18317 24.7791 2.26925 25.1283 2.49163 25.3965C2.62041 25.5519 2.90758 25.8125 3.38356 25.8125H17.115C17.7308 25.8125 18.23 26.3022 18.23 26.9062C18.23 27.5103 17.7308 28 17.115 28H3.38356C2.36179 28 1.40608 27.5541 0.761568 26.7767C0.113874 25.9954 -0.137387 24.9806 0.072341 23.9927C0.741498 20.8395 2.51416 17.9701 5.06368 15.913C6.45406 14.7911 8.04263 13.9403 9.73563 13.3936C7.88782 12.0358 6.68988 9.87131 6.68988 7.4375C6.68988 3.33648 10.0911 0 14.2718 0C18.4525 0 21.8537 3.33648 21.8537 7.4375C21.8537 9.86863 20.6584 12.031 18.814 13.389ZM14.2718 12.6784C14.3626 12.6784 14.4532 12.6792 14.5437 12.6808C17.3689 12.5414 19.6237 10.2429 19.6237 7.4375C19.6237 4.54262 17.2229 2.1875 14.2718 2.1875C11.3207 2.1875 8.91985 4.54262 8.91985 7.4375C8.91985 10.2436 11.1757 12.5426 14.0019 12.6809C14.0918 12.6792 14.1818 12.6784 14.2718 12.6784Z" fill="#CCA575"/>
<path d="M26.9217 21.7997H23.9564V18.8344C23.9564 18.2389 23.4736 17.7561 22.8781 17.7561C22.2825 17.7561 21.7997 18.2389 21.7997 18.8344V21.7997H18.8344C18.2389 21.7997 17.7561 22.2825 17.7561 22.8781C17.7561 23.4736 18.2389 23.9564 18.8344 23.9564H21.7997V26.9217C21.7997 27.5172 22.2825 28 22.8781 28C23.4736 28 23.9564 27.5172 23.9564 26.9217V23.9564H26.9217C27.5172 23.9564 28 23.4736 28 22.8781C28 22.2825 27.5172 21.7997 26.9217 21.7997Z" fill="#CCA575"/>
</svg>
