<svg width="18" height="18" viewBox="0 0 18 18" fill="none" xmlns="http://www.w3.org/2000/svg">
<path fill-rule="evenodd" clip-rule="evenodd" d="M17.1227 14.8788C17.503 14.7997 17.8752 15.0437 17.9544 15.4238C18.0866 16.059 17.9282 16.7113 17.5197 17.2136C17.1133 17.7134 16.5106 18 15.8662 18H2.13373C1.48938 18 0.886699 17.7134 0.480257 17.2136C0.0718108 16.7113 -0.0866387 16.059 0.0456193 15.4238C0.4676 13.3969 1.58547 11.5522 3.19323 10.2298C4.07003 9.50857 5.07181 8.96164 6.13944 8.61015C4.97418 7.73733 4.21874 6.34584 4.21874 4.78125C4.21874 2.14488 6.36359 0 9 0C11.6364 0 13.7813 2.14488 13.7813 4.78125C13.7813 6.34489 13.0267 7.73564 11.8627 8.60853C13.7729 9.23723 15.4482 10.4884 16.6019 12.2091C16.8182 12.5317 16.732 12.9684 16.4095 13.1847C16.0869 13.4009 15.6502 13.3148 15.4339 12.9922C14.0263 10.893 11.7019 9.61921 9.1871 9.55888C9.12501 9.56127 9.06265 9.5625 9 9.5625C8.93756 9.5625 8.87544 9.56131 8.8136 9.55891C5.24351 9.64526 2.15204 12.2055 1.42234 15.7104C1.37674 15.9294 1.43102 16.1539 1.57126 16.3264C1.65247 16.4262 1.83356 16.5938 2.13373 16.5938H15.8663C16.1664 16.5938 16.3475 16.4262 16.4287 16.3264C16.5689 16.1539 16.6233 15.9294 16.5777 15.7104C16.4985 15.3303 16.7425 14.9579 17.1227 14.8788ZM9 1.40625C7.139 1.40625 5.62499 2.92025 5.62499 4.78125C5.62499 6.58519 7.04759 8.06309 8.82984 8.152C8.88651 8.15094 8.94326 8.15038 9 8.15038C9.05702 8.15038 9.11397 8.15091 9.17082 8.15196C10.9528 8.0627 12.375 6.58494 12.375 4.78125C12.375 2.92025 10.861 1.40625 9 1.40625Z" fill="#C7B299"/>
</svg>
