<svg width="16" height="18" viewBox="0 0 16 18" fill="none" xmlns="http://www.w3.org/2000/svg">
<path d="M11 8C11 7.4477 10.7088 7 10.3496 7H3.65041C3.29119 7 3 7.4477 3 8C3 8.5523 3.29119 9 3.65041 9H10.3496C10.7088 9 11 8.5523 11 8Z" fill="#C7B299"/>
<path d="M3.72678 10C3.32538 10 3 10.4477 3 11C3 11.5523 3.32538 12 3.72678 12H8.27322C8.67462 12 9 11.5523 9 11C9 10.4477 8.67462 10 8.27322 10H3.72678Z" fill="#C7B299"/>
<path d="M5.06652 16.5938H2.75938C1.99862 16.5938 1.37969 15.9629 1.37969 15.1875V2.8125C1.37969 2.03709 1.99862 1.40625 2.75938 1.40625H11.2406C12.0014 1.40625 12.6203 2.03709 12.6203 2.8125V7.13672C12.6203 7.52505 12.9292 7.83984 13.3102 7.83984C13.6912 7.83984 14 7.52505 14 7.13672V2.8125C14 1.26169 12.7621 0 11.2406 0H2.75938C1.23786 0 0 1.26169 0 2.8125V15.1875C0 16.7383 1.23786 18 2.75938 18H5.06652C5.44752 18 5.75637 17.6852 5.75637 17.2969C5.75637 16.9085 5.44752 16.5938 5.06652 16.5938Z" fill="#C7B299"/>
<path fill-rule="evenodd" clip-rule="evenodd" d="M15.4199 9.65811C14.6465 8.78075 13.388 8.78071 12.6151 9.65751L8.9848 13.7664C8.9077 13.8537 8.85084 13.9612 8.81916 14.0794L8.02856 17.0319C7.95847 17.2937 8.01954 17.5779 8.18795 17.7737C8.31412 17.9204 8.48551 18 8.6613 18C8.72011 18 8.77949 17.9911 8.83778 17.9727L11.5067 17.1341C11.6165 17.0996 11.7166 17.0335 11.7973 16.9421L15.4199 12.8405C16.1934 11.9631 16.1934 10.5355 15.4199 9.65811ZM10.9861 15.7411L9.64339 16.163L10.0363 14.6955L12.4858 11.923L13.4211 12.984L10.9861 15.7411ZM14.3572 11.9243L14.4853 11.7792C14.7426 11.4872 14.7426 11.0114 14.4848 10.7189C14.227 10.4265 13.8075 10.4265 13.5497 10.7189L13.422 10.8635L14.3572 11.9243Z" fill="#C7B299"/>
<path d="M10.3496 4H3.65041C3.29119 4 3 4.4477 3 5C3 5.5523 3.29119 6 3.65041 6H10.3496C10.7088 6 11 5.5523 11 5C11 4.4477 10.7088 4 10.3496 4Z" fill="#C7B299"/>
</svg>
