<svg width="45" height="45" viewBox="0 0 45 45" fill="none" xmlns="http://www.w3.org/2000/svg">
<path fill-rule="evenodd" clip-rule="evenodd" d="M5.27821 41.4842H20.5693C21.54 41.4842 22.327 42.2714 22.327 43.2422C22.327 44.213 21.5402 45 20.5694 45H5.2783C3.5739 45 2.02084 44.2099 1.01699 42.8323C0.0129579 41.4546 -0.263494 39.7336 0.258419 38.1107C1.83208 33.2173 5.69756 29.3802 10.4648 27.5934C8.682 25.9537 7.56299 23.6025 7.56299 20.995C7.56299 16.0517 11.584 12.0301 16.5267 12.0301C20.29 12.0301 23.5192 14.3616 24.8458 17.656C25.8073 16.9571 26.8417 16.3629 27.9415 15.8789C28.1832 15.7725 28.4266 15.6721 28.6718 15.5777C26.8797 13.9374 25.7542 11.5801 25.7542 8.96485C25.7542 4.0216 29.7752 0 34.7179 0C39.6605 0 43.6816 4.0216 43.6815 8.96467C43.6815 11.5906 42.547 13.9563 40.7422 15.5975C41.9719 16.0755 43.1474 16.7016 44.2477 17.4692C45.0439 18.0246 45.2391 19.1203 44.6839 19.9165C44.1284 20.7128 43.0329 20.908 42.2368 20.3526C40.014 18.8022 37.4007 17.9826 34.6794 17.9826C31.1936 17.9826 27.9419 19.3069 25.4611 21.7238C25.2725 24.0565 24.1871 26.1398 22.5511 27.6275C23.7807 28.1055 24.9563 28.7317 26.0566 29.4992C26.8528 30.0547 27.048 31.1503 26.4928 31.9465C25.9372 32.7428 24.8418 32.938 24.0457 32.3827C21.8229 30.8322 19.2096 30.0127 16.4883 30.0127C10.6399 30.0127 5.34187 33.7852 3.60463 39.1869C3.43065 39.7281 3.52283 40.3021 3.85766 40.7615C4.19239 41.2208 4.71008 41.4842 5.27821 41.4842ZM40.1666 8.96476C40.1666 5.96007 37.7223 3.51557 34.718 3.51557C31.7137 3.51557 29.2695 5.96007 29.2695 8.96476C29.2695 11.9695 31.7137 14.414 34.718 14.414C37.7223 14.414 40.1666 11.9695 40.1666 8.96476ZM16.5268 15.5456C19.5311 15.5456 21.9754 17.9901 21.9754 20.9948C21.9754 23.9995 19.5311 26.444 16.5268 26.444C13.5225 26.444 11.0782 23.9995 11.0782 20.9948C11.0782 17.9901 13.5225 15.5456 16.5268 15.5456ZM41.8651 29.1013C42.4208 28.3151 43.5009 28.1341 44.2773 28.6969C45.0538 29.2597 45.2325 30.3532 44.6769 31.1393L36.1204 43.241C36.1016 43.2673 36.0824 43.2932 36.0622 43.3186C35.2853 44.2973 34.13 44.9066 32.8926 44.9901C32.7947 44.9968 32.6968 45 32.5992 45C31.4633 45 30.3593 44.5565 29.5322 43.7593L24.0097 38.3902C23.321 37.7206 23.2987 36.6124 23.9601 35.9151C24.6212 35.2178 25.7158 35.1951 26.4046 35.8649L31.9216 41.2287C32.1894 41.4867 32.5017 41.5079 32.6625 41.4967C32.8188 41.4862 33.1105 41.4272 33.3432 41.1539L41.8651 29.1013Z" fill="#CCA575"/>
</svg>
