<svg width="172" height="90" viewBox="0 0 172 90" fill="none" xmlns="http://www.w3.org/2000/svg">
<path fill-rule="evenodd" clip-rule="evenodd" d="M49.3174 50.7398C49.2355 50.5219 49.113 50.146 48.9498 49.6143C48.7865 49.0819 48.6371 48.5694 48.5013 48.0777C48.4458 48.2687 48.3178 48.6649 48.1139 49.2658C47.9095 49.8667 47.7397 50.3579 47.6034 50.7398L45.7274 55.9818H51.1934L49.3174 50.7398ZM54.7972 66.1666L52.7618 60.7479H44.2134L42.2187 66.1666H36.2217L46.461 39.9299H50.8258L61.0661 66.1666H54.7972Z" fill="black"/>
<path fill-rule="evenodd" clip-rule="evenodd" d="M72.4879 45.1443H69.7958V50.9701H72.4879C73.3859 50.9701 74.1535 50.7259 74.7926 50.2369C75.4317 49.7485 75.751 49.0148 75.751 48.0369C75.751 47.1407 75.4257 46.4355 74.7723 45.9186C74.1195 45.4033 73.3584 45.1443 72.4879 45.1443ZM79.0558 66.1669L72.039 55.9404H69.7958V66.1669H63.717V40.174H73.4265C75.7653 40.174 77.7501 40.8874 79.3828 42.3131C81.0143 43.7388 81.8298 45.6475 81.8298 48.0369C81.8298 49.5307 81.4627 50.8554 80.7286 52.0095C79.9938 53.1636 79.0283 54.0125 77.8326 54.5553L86.1133 66.1669H79.0558Z" fill="black"/>
<path fill-rule="evenodd" clip-rule="evenodd" d="M99.8201 66.3291H94.6392L85.1342 40.1742H91.6207L95.6998 51.6223C95.9993 52.4378 96.2911 53.3202 96.5768 54.2702C96.8626 55.2218 97.1412 56.2666 97.4132 57.407C97.6847 56.4296 97.9572 55.4791 98.2287 54.5555C98.5012 53.6325 98.8271 52.6546 99.2085 51.6223L103.288 40.1742H109.285L99.8201 66.3291Z" fill="black"/>
<path fill-rule="evenodd" clip-rule="evenodd" d="M111.61 66.1668V40.1743H126.785V45.3482H117.932V50.5221H125.153V55.7778H117.932V60.9923H127.927V66.1668H111.61Z" fill="black"/>
<path fill-rule="evenodd" clip-rule="evenodd" d="M130.987 66.1668V40.1743H137.31V60.7481H147.753V66.1668H130.987Z" fill="black"/>
<path fill-rule="evenodd" clip-rule="evenodd" d="M157.747 66.7364C156.142 66.7364 154.673 66.547 153.341 66.17C152.009 65.7914 150.853 65.2508 149.874 64.5478L149.303 58.5074C151.805 60.4627 154.524 61.4406 157.462 61.4406C159.882 61.4406 161.092 60.5999 161.092 58.9195C161.092 58.1337 160.814 57.5031 160.256 57.029C159.699 56.5543 157.856 55.7684 154.728 54.6703C151.6 53.5728 150.038 51.1532 150.038 47.4111C150.038 45.1616 150.846 43.2848 152.465 41.7795C154.082 40.2747 156.278 39.5223 159.052 39.5223C160.521 39.5223 161.772 39.665 162.806 39.9498C163.839 40.2352 164.709 40.6095 165.416 41.0704L164.927 46.3667C164.275 45.9326 163.444 45.5512 162.439 45.2264C161.432 44.9004 160.466 44.7368 159.542 44.7368C158.481 44.7368 157.666 44.9476 157.095 45.3674C156.524 45.7872 156.238 46.3228 156.238 46.9731C156.238 47.5976 156.516 48.1267 157.074 48.5597C157.631 48.9937 158.856 49.5222 160.746 50.1462C162.636 50.7696 164.227 51.7931 165.519 53.2161C166.809 54.6396 167.456 56.3403 167.456 58.3186C167.456 60.9215 166.62 62.975 164.948 64.4803C163.276 65.9856 160.875 66.7364 157.747 66.7364Z" fill="black"/>
<path fill-rule="evenodd" clip-rule="evenodd" d="M26.6765 40.1741L21.0467 51.0926C20.6114 51.9344 20.1493 52.8855 19.6591 53.9441C19.1701 55.0032 18.7755 55.8994 18.476 56.6331C18.2859 56.1447 17.9523 55.3846 17.477 54.3518C17.0016 53.3201 16.4631 52.2335 15.8658 51.0926L10.2354 40.252C8.6286 41.6294 6.80749 42.6491 4.78635 43.2983L2.81137 66.2477H8.89017L9.70566 56.6199C9.81391 55.0356 9.92327 53.4375 10.0326 51.8258C10.6844 53.51 11.4191 55.1399 12.2351 56.7149L17.1709 66.2477H19.7009L24.596 56.7149C25.4115 55.1124 26.1731 53.4694 26.8798 51.7852C26.8798 52.3866 26.9205 53.2191 27.0029 54.2843C27.0843 55.35 27.1249 56.1282 27.1249 56.6199L27.9816 66.2477H34.183L31.8574 40.1741H26.6765Z" fill="black"/>
<path fill-rule="evenodd" clip-rule="evenodd" d="M2.10631 39.5101L0 37.3589C2.52175 36.8485 4.4198 35.7652 5.69633 34.1079C6.97232 32.4517 7.61086 30.1089 7.61086 27.0813V3.08423H10.8184V27.4155C10.8184 30.8575 9.98809 33.5986 8.32854 35.6373C6.66953 37.6772 4.59509 38.9673 2.10631 39.5101Z" fill="black"/>
<path fill-rule="evenodd" clip-rule="evenodd" d="M62.4184 5.85655H57.4403V16.8514H62.6102C64.301 16.8514 65.7287 16.358 66.8942 15.3691C68.0592 14.3819 68.6411 13.0434 68.6411 11.3542C68.6411 9.69691 68.0427 8.36612 66.847 7.3624C65.6496 6.35868 64.173 5.85655 62.4184 5.85655ZM72.8879 33.5919L62.6975 19.6309L57.4403 19.6238V33.582H54.2333V3.08411H62.9454C65.4023 3.08411 67.5086 3.83319 69.2638 5.33081C71.0178 6.82844 71.8965 8.83752 71.8965 11.3542C71.8965 13.2662 71.3371 14.9158 70.2205 16.3015C69.1039 17.6883 67.6674 18.6365 65.9128 19.1458L76.6356 33.5815L72.8879 33.5919Z" fill="black"/>
<path fill-rule="evenodd" clip-rule="evenodd" d="M86.9735 5.85655H82.6658V30.8101H86.9735C91.1542 30.8101 94.5525 29.7186 97.1698 27.535C99.7856 25.3525 101.095 22.2854 101.095 18.3325C101.095 14.3819 99.7856 11.3142 97.1698 9.13167C94.5525 6.94862 91.1542 5.85655 86.9735 5.85655ZM87.4527 33.582H79.4588V3.08411H87.4527C92.2396 3.08411 96.2599 4.44618 99.5152 7.17142C102.77 9.89557 104.397 13.6174 104.397 18.3325C104.397 23.0498 102.785 26.7706 99.563 29.4953C96.3395 32.22 92.3028 33.582 87.4527 33.582Z" fill="black"/>
<path fill-rule="evenodd" clip-rule="evenodd" d="M122.484 13.0304C121.912 11.6595 121.372 10.0966 120.864 8.34271C120.576 9.17137 120.329 9.86448 120.123 10.4231C119.915 10.9807 119.573 11.8494 119.095 13.0282L115.446 22.3964H126.079L122.484 13.0304ZM130.725 33.5822L127.199 25.0256H114.275L110.898 33.5981L107.701 33.5822L120.337 2.46252H121.343L133.98 33.5822H130.725Z" fill="black"/>
<path fill-rule="evenodd" clip-rule="evenodd" d="M164.231 34.2523L149.218 17.0277L141.732 8.2472C141.7 8.78994 141.686 9.37933 141.686 10.0165V11.4982V14.151V16.7566V33.5822H138.527V3.08427L140.794 3.06836L154.938 19.2952C156.438 20.9833 157.676 22.4008 158.651 23.5472C159.624 24.6936 160.703 25.9991 161.885 27.4633C161.917 26.9222 161.934 26.3487 161.934 25.7429V24.3566V23.7354V23.1614V21.25V19.7672V19.337V3.08427H165.093V34.2517L164.231 34.2523Z" fill="black"/>
<path fill-rule="evenodd" clip-rule="evenodd" d="M32.8768 2.60299C24.1696 2.60299 17.0858 9.67732 17.0858 18.3727C17.0858 27.0682 24.1696 34.1425 32.8768 34.1425C41.5839 34.1425 48.6673 27.0682 48.6673 18.3727C48.6673 9.67732 41.5839 2.60299 32.8768 2.60299ZM32.8768 36.7454C22.7327 36.7454 14.4794 28.5038 14.4794 18.3727C14.4794 8.24226 22.7327 0.00012207 32.8768 0.00012207C43.021 0.00012207 51.2748 8.24226 51.2748 18.3727C51.2748 28.5038 43.021 36.7454 32.8768 36.7454Z" fill="black"/>
<path fill-rule="evenodd" clip-rule="evenodd" d="M26.8863 12.3899L31.2165 20.9547L35.366 16.357L26.8863 12.3899Z" fill="#C7B299"/>
<path fill-rule="evenodd" clip-rule="evenodd" d="M31.5438 19.7036L32.1571 19.0912L31.4394 19.8073L31.5438 19.7036Z" fill="black"/>
<path fill-rule="evenodd" clip-rule="evenodd" d="M31.1542 20.0927L31.4394 19.8074L31.1542 20.0927Z" fill="black"/>
<path fill-rule="evenodd" clip-rule="evenodd" d="M34.5935 16.659H34.5924L32.157 19.0912L32.8752 18.3751L31.1524 20.0949L27.8564 13.3587L34.6001 16.6524L34.5935 16.659ZM35.4629 15.7903L25.3127 10.8195L30.2913 20.9549L40.4399 25.9257L35.4629 15.7903Z" fill="black"/>
<path fill-rule="evenodd" clip-rule="evenodd" d="M31.7451 87.2471L29.048 89.7347L29.3134 86.0765L25.6822 85.5223L28.7111 83.4495L26.8812 80.2715L30.3943 81.3449L31.7401 77.9337L33.0908 81.3449L36.6028 80.2726L34.7729 83.4517L37.8035 85.5233L34.1745 86.0765L34.4421 89.7347L31.7451 87.2471Z" fill="#C7B299"/>
<path fill-rule="evenodd" clip-rule="evenodd" d="M58.4709 87.2508L55.7744 89.7384L56.0404 86.0808L52.4086 85.5265L55.4386 83.4554L53.6065 80.2752L57.1207 81.3487L58.4676 77.938L59.8172 81.3492L63.3286 80.2763L61.4998 83.4549L64.5304 85.5271L60.9014 86.0813L61.1696 89.7384L58.4709 87.2508Z" fill="#C7B299"/>
<path fill-rule="evenodd" clip-rule="evenodd" d="M85.1978 87.2546L82.5007 89.7433L82.7667 86.0846L79.136 85.5309L82.1655 83.4581L80.3328 80.2801L83.8476 81.3524L85.1928 77.9418L86.5435 81.3524L90.055 80.2796L88.2256 83.4592L91.2573 85.5314L87.6277 86.0851L87.8959 89.7427L85.1978 87.2546Z" fill="#C7B299"/>
<path fill-rule="evenodd" clip-rule="evenodd" d="M111.924 87.2599L109.228 89.747L109.492 86.0888L105.861 85.534L108.891 83.4629L107.058 80.2832L110.573 81.3567L111.919 77.9454L113.27 81.3567L116.78 80.2843L114.952 83.4629L117.984 85.5351L114.355 86.0888L114.622 89.747L111.924 87.2599Z" fill="#C7B299"/>
<path fill-rule="evenodd" clip-rule="evenodd" d="M138.651 87.2631L135.955 89.7513L136.219 86.0926L132.588 85.5383L135.617 83.4661L133.786 80.2876L137.3 81.361L138.646 77.9492L139.996 81.361L143.507 80.2887L141.679 83.4683L144.71 85.5399L141.08 86.0926L141.349 89.7513L138.651 87.2631Z" fill="#C7B299"/>
<mask id="mask0" mask-type="alpha" maskUnits="userSpaceOnUse" x="168" y="41" width="4" height="5">
<path fill-rule="evenodd" clip-rule="evenodd" d="M168.074 41.5764H171.543V45.0112H168.074V41.5764Z" fill="white"/>
</mask>
<g mask="url(#mask0)">
<path fill-rule="evenodd" clip-rule="evenodd" d="M169.798 42.5467H169.543V43.18H169.798C170.044 43.18 170.166 43.0724 170.166 42.8589C170.166 42.7673 170.134 42.6926 170.07 42.6345C170.006 42.5768 169.915 42.5467 169.798 42.5467ZM170.423 44.3428L169.827 43.4818H169.543V44.3428H169.212V42.2542H169.835C170.025 42.2542 170.183 42.3101 170.308 42.4232C170.433 42.5362 170.497 42.6817 170.497 42.8578C170.497 42.9731 170.465 43.0801 170.405 43.1772C170.346 43.2749 170.266 43.3479 170.17 43.3973L170.705 44.1551L170.423 44.3428ZM169.809 41.8596C169.393 41.8596 169.051 41.994 168.784 42.2591C168.519 42.5247 168.386 42.8677 168.386 43.2897C168.386 43.7112 168.519 44.0536 168.784 44.3192C169.051 44.5854 169.393 44.7176 169.809 44.7176C170.212 44.7176 170.55 44.5854 170.822 44.3192C171.095 44.0536 171.231 43.7112 171.231 43.2897C171.231 42.8748 171.095 42.5324 170.826 42.2629C170.558 41.9946 170.218 41.8596 169.809 41.8596ZM169.809 45.0112C169.313 45.0112 168.9 44.8499 168.569 44.5256C168.24 44.2029 168.074 43.7907 168.074 43.2897C168.074 42.7826 168.24 42.3705 168.569 42.0528C168.9 41.7356 169.313 41.5764 169.809 41.5764C170.297 41.5764 170.709 41.7356 171.043 42.0571C171.375 42.3771 171.543 42.7881 171.543 43.2897C171.543 43.7907 171.377 44.2029 171.046 44.5256C170.716 44.8499 170.304 45.0112 169.809 45.0112Z" fill="black"/>
</g>
</svg>
