<svg width="147" height="77" viewBox="0 0 147 77" fill="none" xmlns="http://www.w3.org/2000/svg">
<path fill-rule="evenodd" clip-rule="evenodd" d="M42.1492 43.4108C42.0792 43.2244 41.9745 42.9028 41.835 42.4478C41.6955 41.9924 41.5678 41.5539 41.4517 41.1332C41.4043 41.2966 41.2949 41.6356 41.1206 42.1497C40.9459 42.6638 40.8008 43.084 40.6843 43.4108L39.081 47.8956H43.7526L42.1492 43.4108ZM46.8325 56.6093L45.0929 51.9733H37.7871L36.0822 56.6093H30.957L39.7079 34.1624H43.4384L52.1903 56.6093H46.8325Z" fill="white"/>
<path fill-rule="evenodd" clip-rule="evenodd" d="M61.9519 38.6235H59.6511V43.6078H61.9519C62.7193 43.6078 63.3754 43.3989 63.9216 42.9805C64.4678 42.5627 64.7407 41.9349 64.7407 41.0983C64.7407 40.3316 64.4626 39.7282 63.9042 39.2859C63.3463 38.8451 62.6958 38.6235 61.9519 38.6235ZM67.5651 56.6095L61.5682 47.8602H59.6511V56.6095H54.4558V34.3711H62.7541C64.7529 34.3711 66.4493 34.9815 67.8446 36.2013C69.239 37.421 69.9359 39.054 69.9359 41.0983C69.9359 42.3763 69.6222 43.5097 68.9948 44.4971C68.3668 45.4844 67.5417 46.2108 66.5197 46.6751L73.5968 56.6095H67.5651Z" fill="white"/>
<path fill-rule="evenodd" clip-rule="evenodd" d="M85.3113 56.7483H80.8835L72.76 34.3713H78.3037L81.7899 44.1658C82.0459 44.8635 82.2953 45.6185 82.5395 46.4312C82.7837 47.2454 83.0218 48.1393 83.2543 49.115C83.4863 48.2788 83.7192 47.4656 83.9512 46.6754C84.1842 45.8857 84.4627 45.049 84.7886 44.1658L88.2753 34.3713H93.4006L85.3113 56.7483Z" fill="white"/>
<path fill-rule="evenodd" clip-rule="evenodd" d="M95.3873 56.6093V34.3713H108.357V38.7979H100.791V43.2245H106.962V47.721H100.791V52.1823H109.333V56.6093H95.3873Z" fill="white"/>
<path fill-rule="evenodd" clip-rule="evenodd" d="M111.948 56.6093V34.3713H117.352V51.9734H126.277V56.6093H111.948Z" fill="white"/>
<path fill-rule="evenodd" clip-rule="evenodd" d="M134.819 57.0968C133.447 57.0968 132.192 56.9348 131.053 56.6123C129.914 56.2883 128.927 55.8259 128.09 55.2244L127.602 50.0565C129.74 51.7294 132.064 52.566 134.575 52.566C136.644 52.566 137.678 51.8467 137.678 50.4091C137.678 49.7368 137.44 49.1973 136.963 48.7916C136.487 48.3855 134.911 47.7132 132.239 46.7737C129.565 45.8346 128.23 43.7646 128.23 40.563C128.23 38.6384 128.921 37.0327 130.304 35.7448C131.686 34.4574 133.564 33.8137 135.934 33.8137C137.19 33.8137 138.259 33.9358 139.142 34.1795C140.025 34.4236 140.769 34.7438 141.373 35.1382L140.955 39.6695C140.397 39.2981 139.688 38.9718 138.828 38.6938C137.968 38.4149 137.143 38.275 136.353 38.275C135.446 38.275 134.749 38.4553 134.261 38.8145C133.773 39.1737 133.529 39.6319 133.529 40.1883C133.529 40.7226 133.767 41.1752 134.243 41.5456C134.72 41.917 135.766 42.3692 137.381 42.903C138.997 43.4364 140.357 44.312 141.461 45.5295C142.564 46.7474 143.117 48.2024 143.117 49.895C143.117 52.1219 142.402 53.8788 140.973 55.1667C139.544 56.4545 137.492 57.0968 134.819 57.0968Z" fill="white"/>
<path fill-rule="evenodd" clip-rule="evenodd" d="M22.7991 34.3713L17.9876 43.7128C17.6156 44.433 17.2206 45.2466 16.8017 46.1523C16.3837 47.0585 16.0465 47.8252 15.7905 48.4529C15.628 48.0351 15.343 47.3848 14.9367 46.5012C14.5305 45.6185 14.0702 44.6889 13.5597 43.7128L8.74769 34.438C7.37444 35.6165 5.81802 36.4888 4.09066 37.0443L2.40274 56.6788H7.59799L8.29495 48.4417C8.38747 47.0862 8.48093 45.719 8.57439 44.34C9.1314 45.781 9.75932 47.1754 10.4567 48.5229L14.6751 56.6788H16.8374L21.021 48.5229C21.718 47.1519 22.3689 45.7462 22.9729 44.3053C22.9729 44.8199 23.0076 45.5321 23.0781 46.4434C23.1476 47.3552 23.1823 48.021 23.1823 48.4417L23.9145 56.6788H29.2145L27.227 34.3713H22.7991Z" fill="white"/>
<path fill-rule="evenodd" clip-rule="evenodd" d="M1.80016 33.8033L0 31.9628C2.15522 31.5261 3.77738 30.5993 4.86838 29.1814C5.9589 27.7644 6.50463 25.76 6.50463 23.1697V2.63892H9.24597V23.4557C9.24597 26.4005 8.53633 28.7457 7.11799 30.4899C5.70012 32.2351 3.9272 33.3389 1.80016 33.8033Z" fill="white"/>
<path fill-rule="evenodd" clip-rule="evenodd" d="M53.3459 5.01089H49.0914V14.4176H53.5099C54.955 14.4176 56.1751 13.9955 57.1712 13.1494C58.1669 12.3048 58.6642 11.1596 58.6642 9.71446C58.6642 8.29654 58.1528 7.15797 57.1308 6.29923C56.1075 5.4405 54.8455 5.01089 53.3459 5.01089ZM62.2937 28.74L53.5846 16.7956L49.0914 16.7895V28.7316H46.3506V2.63892H53.7964C55.8962 2.63892 57.6963 3.2798 59.1964 4.5611C60.6955 5.8424 61.4465 7.56128 61.4465 9.71446C61.4465 11.3502 60.9684 12.7616 60.014 13.9471C59.0597 15.1336 57.8321 15.9449 56.3325 16.3806L65.4967 28.7311L62.2937 28.74Z" fill="white"/>
<path fill-rule="evenodd" clip-rule="evenodd" d="M74.332 5.01089H70.6504V26.3601H74.332C77.9051 26.3601 80.8094 25.4262 83.0463 23.558C85.2819 21.6908 86.4006 19.0667 86.4006 15.6848C86.4006 12.3048 85.2819 9.68019 83.0463 7.81294C80.8094 5.94522 77.9051 5.01089 74.332 5.01089ZM74.7416 28.7316H67.9096V2.63892H74.7416C78.8327 2.63892 82.2686 3.80425 85.0508 6.13584C87.8325 8.4665 89.2232 11.6507 89.2232 15.6848C89.2232 19.7207 87.8457 22.904 85.0917 25.2351C82.3367 27.5663 78.8867 28.7316 74.7416 28.7316Z" fill="white"/>
<path fill-rule="evenodd" clip-rule="evenodd" d="M104.681 11.1483C104.192 9.97549 103.731 8.63832 103.296 7.13776C103.051 7.84672 102.84 8.43971 102.663 8.91768C102.486 9.3947 102.193 10.1379 101.785 11.1465L98.6659 19.1615H107.754L104.681 11.1483ZM111.725 28.7316L108.711 21.4109H97.6656L94.7791 28.7452L92.0467 28.7316L102.846 2.10693H103.706L114.506 28.7316H111.725Z" fill="white"/>
<path fill-rule="evenodd" clip-rule="evenodd" d="M140.36 29.3048L127.529 14.5682L121.131 7.05603C121.104 7.52038 121.092 8.02463 121.092 8.56974V9.83742V12.107V14.3363V28.7315H118.392V2.63886L120.33 2.62524L132.418 16.5083C133.7 17.9525 134.758 19.1652 135.591 20.146C136.423 21.1268 137.345 22.2438 138.355 23.4965C138.383 23.0335 138.397 22.5429 138.397 22.0245V20.8386V20.3071V19.816V18.1807V16.912V16.5439V2.63886H141.097V29.3043L140.36 29.3048Z" fill="white"/>
<path fill-rule="evenodd" clip-rule="evenodd" d="M28.0982 2.22714C20.6566 2.22714 14.6024 8.27962 14.6024 15.719C14.6024 23.1585 20.6566 29.2109 28.0982 29.2109C35.5398 29.2109 41.5935 23.1585 41.5935 15.719C41.5935 8.27962 35.5398 2.22714 28.0982 2.22714ZM28.0982 31.4378C19.4285 31.4378 12.3748 24.3867 12.3748 15.719C12.3748 7.05185 19.4285 0.000244141 28.0982 0.000244141C36.7679 0.000244141 43.822 7.05185 43.822 15.719C43.822 24.3867 36.7679 31.4378 28.0982 31.4378Z" fill="white"/>
<path fill-rule="evenodd" clip-rule="evenodd" d="M22.9784 10.6003L26.6793 17.928L30.2256 13.9944L22.9784 10.6003Z" fill="#C7B299"/>
<path fill-rule="evenodd" clip-rule="evenodd" d="M26.959 16.8577L27.4831 16.3337L26.8697 16.9465L26.959 16.8577Z" fill="black"/>
<path fill-rule="evenodd" clip-rule="evenodd" d="M26.626 17.1906L26.8697 16.9464L26.626 17.1906Z" fill="black"/>
<path fill-rule="evenodd" clip-rule="evenodd" d="M29.5654 14.2529H29.5645L27.483 16.3338L28.0968 15.7211L26.6245 17.1925L23.8075 11.4293L29.571 14.2473L29.5654 14.2529ZM30.3084 13.5097L21.6335 9.25684L25.8885 17.9283L34.562 22.1811L30.3084 13.5097Z" fill="white"/>
<path fill-rule="evenodd" clip-rule="evenodd" d="M27.1309 74.6448L24.8259 76.7731L25.0527 73.6434L21.9493 73.1692L24.538 71.3958L22.9741 68.6769L25.9765 69.5952L27.1267 66.6768L28.2811 69.5952L31.2826 68.6778L29.7187 71.3977L32.3088 73.1701L29.2073 73.6434L29.436 76.7731L27.1309 74.6448Z" fill="#C7B299"/>
<path fill-rule="evenodd" clip-rule="evenodd" d="M49.9722 74.648L47.6677 76.7763L47.895 73.647L44.7911 73.1728L47.3807 71.4009L45.8149 68.6801L48.8183 69.5984L49.9694 66.6804L51.1229 69.5989L54.1239 68.681L52.5609 71.4004L55.1511 73.1733L52.0495 73.6475L52.2787 76.7763L49.9722 74.648Z" fill="#C7B299"/>
<path fill-rule="evenodd" clip-rule="evenodd" d="M72.8144 74.6512L70.5094 76.7804L70.7367 73.6502L67.6337 73.1765L70.2229 71.4031L68.6566 68.6842L71.6605 69.6016L72.8102 66.6836L73.9646 69.6016L76.9656 68.6837L75.4022 71.4041L77.9932 73.1769L74.8912 73.6507L75.1204 76.78L72.8144 74.6512Z" fill="#C7B299"/>
<path fill-rule="evenodd" clip-rule="evenodd" d="M95.6556 74.6558L93.3515 76.7836L93.5778 73.6539L90.4739 73.1792L93.064 71.4072L91.4973 68.6869L94.5016 69.6053L95.6513 66.6868L96.8062 69.6053L99.8063 68.6878L98.2443 71.4072L100.835 73.1801L97.7333 73.6539L97.9615 76.7836L95.6556 74.6558Z" fill="#C7B299"/>
<path fill-rule="evenodd" clip-rule="evenodd" d="M118.498 74.6585L116.194 76.7873L116.42 73.657L113.316 73.1828L115.905 71.4099L114.34 68.6905L117.343 69.6089L118.494 66.6899L119.648 69.6089L122.649 68.6915L121.086 71.4118L123.677 73.1842L120.575 73.657L120.804 76.7873L118.498 74.6585Z" fill="#C7B299"/>
<mask id="mask0" mask-type="alpha" maskUnits="userSpaceOnUse" x="143" y="35" width="4" height="4">
<path fill-rule="evenodd" clip-rule="evenodd" d="M143.645 35.571H146.609V38.5097H143.645V35.571Z" fill="white"/>
</mask>
<g mask="url(#mask0)">
<path fill-rule="evenodd" clip-rule="evenodd" d="M145.118 36.4011H144.9V36.943H145.118C145.328 36.943 145.433 36.8509 145.433 36.6683C145.433 36.5899 145.405 36.526 145.351 36.4763C145.296 36.427 145.218 36.4011 145.118 36.4011ZM145.652 37.9379L145.143 37.2012H144.9V37.9379H144.617V36.1509H145.15C145.312 36.1509 145.447 36.1988 145.554 36.2955C145.661 36.3922 145.715 36.5166 145.715 36.6674C145.715 36.766 145.688 36.8575 145.637 36.9406C145.586 37.0242 145.518 37.0866 145.436 37.1289L145.893 37.7773L145.652 37.9379ZM145.127 35.8133C144.772 35.8133 144.479 35.9283 144.252 36.1551C144.025 36.3824 143.912 36.6758 143.912 37.0369C143.912 37.3974 144.025 37.6904 144.252 37.9177C144.479 38.1454 144.772 38.2585 145.127 38.2585C145.472 38.2585 145.761 38.1454 145.993 37.9177C146.226 37.6904 146.343 37.3974 146.343 37.0369C146.343 36.6819 146.226 36.3889 145.997 36.1584C145.767 35.9288 145.477 35.8133 145.127 35.8133ZM145.127 38.5097C144.704 38.5097 144.351 38.3717 144.068 38.0942C143.787 37.8181 143.645 37.4655 143.645 37.0369C143.645 36.603 143.787 36.2504 144.068 35.9786C144.351 35.7072 144.704 35.571 145.127 35.571C145.545 35.571 145.897 35.7072 146.182 35.9823C146.466 36.2561 146.609 36.6077 146.609 37.0369C146.609 37.4655 146.468 37.8181 146.185 38.0942C145.903 38.3717 145.55 38.5097 145.127 38.5097Z" fill="black"/>
</g>
</svg>
